<svg width="1107" height="267" viewBox="0 0 1107 267" fill="none" xmlns="http://www.w3.org/2000/svg">
<path d="M160.438 139.176L203.09 138.789C200.247 152.181 193.671 163.728 183.364 173.428C173.174 183.043 160.379 190.426 144.977 195.577C129.574 200.642 112.632 203.003 94.1493 202.659C77.2069 202.402 62.9895 199.697 51.4971 194.547C40.0047 189.396 31.0003 182.614 24.484 174.201C17.9677 165.702 13.6432 156.259 11.5106 145.872C9.49647 135.484 9.49647 124.925 11.5106 114.194L14.5318 98.6132C16.9014 87.1098 21.2258 75.9927 27.5052 65.2619C33.7846 54.5311 41.9596 44.9592 52.0302 36.5462C62.2194 28.1333 74.3042 21.566 88.2846 16.8444C102.265 12.037 118.082 9.7621 135.735 10.0196C153.862 10.2772 169.087 13.153 181.409 18.6472C193.849 24.0555 203.386 31.5671 210.021 41.1819C216.656 50.7967 220.27 61.9568 220.862 74.662L177.677 74.5333C177.677 67.1505 176.255 60.5832 173.411 54.8315C170.686 49.0798 166.125 44.5299 159.727 41.1819C153.329 37.8339 144.562 36.0311 133.425 35.7736C121.34 35.5161 110.914 37.1901 102.147 40.7956C93.3792 44.4012 85.9743 49.2944 79.9319 55.4754C74.008 61.6563 69.3281 68.524 65.8922 76.0785C62.4563 83.5472 59.9683 90.9729 58.4281 98.3557L55.2292 114.323C54.0444 120.504 53.452 127.157 53.452 134.282C53.452 141.408 54.6368 148.147 57.0063 154.499C59.4944 160.852 63.8188 166.131 69.9797 170.338C76.2591 174.459 85.0857 176.648 96.4597 176.905C108.308 177.249 118.437 175.918 126.849 172.913C135.38 169.909 142.37 165.531 147.82 159.779C153.389 154.027 157.595 147.159 160.438 139.176Z" fill="#09702C"/>
<path d="M364.998 12.595L320.213 200.084H276.85L321.813 12.595H364.998ZM443.727 12.595L437.507 38.349H237.575L243.795 12.595H443.727Z" fill="#09702C"/>
<path d="M469.148 12.595L555.696 12.7238C571.454 12.9813 585.553 15.1275 597.993 19.1623C610.552 23.1971 620.208 29.2493 626.961 37.3188C633.833 45.3884 636.558 55.6041 635.136 67.966C634.07 77.9242 630.516 86.423 624.473 93.4624C618.549 100.416 610.73 106.296 601.014 111.104C591.418 115.911 580.518 119.903 568.314 123.079L553.919 127.715H471.636L477.501 102.09L535.081 102.219C544.559 102.219 553.327 100.974 561.383 98.4845C569.44 95.9091 576.134 92.2177 581.466 87.4103C586.797 82.517 590.114 76.5507 591.418 69.5113C592.602 62.9869 591.892 57.4498 589.285 52.9C586.679 48.3501 582.413 44.8733 576.489 42.4696C570.565 39.9801 563.22 38.6494 554.452 38.4778L506.646 38.349L467.904 200.084H424.185L469.148 12.595ZM568.67 200.084L529.75 115.868L573.29 115.74L615.054 198.281V200.084H568.67Z" fill="#09702C"/>
<path d="M802.909 174.459L796.689 200.084H670.331L676.552 174.459H802.909ZM727.734 12.595L682.772 200.084H639.053L684.016 12.595H727.734Z" fill="#09702C"/>
<path d="M873.513 189.08V150.137H819.875V143.737H873.513V104.95H882.13V143.737H935.983V150.137H882.13V189.08H873.513Z" fill="#09702C"/>
<path d="M945.229 92.3035L999.966 80.7142C1004.35 84.6632 1007.43 88.3975 1009.21 91.9172C1012.41 98.0123 1014.66 106.425 1015.96 117.156C1018.45 138.274 1020.17 160.809 1021.11 184.76C1033.79 172.656 1048.31 156.645 1064.66 136.729C1069.63 130.72 1072.12 125.054 1072.12 119.731C1072.12 116.383 1069.22 113.207 1063.41 110.202C1057.72 107.198 1054.17 104.88 1052.75 103.249C1051.33 101.532 1050.62 99.3429 1050.62 96.6817C1050.62 92.3893 1052.75 88.655 1057.01 85.4787C1061.4 82.3024 1066.67 80.7142 1072.83 80.7142C1079.35 80.7142 1084.97 82.517 1089.71 86.1226C1094.57 89.7281 1097 93.9775 1097 98.8708C1097 104.622 1094.75 111.319 1090.25 118.959C1085.86 126.513 1075.5 139.519 1059.15 157.976C1038.18 181.584 1017.62 202.015 997.478 219.27C984.564 230.259 974.138 238.157 966.2 242.964C958.262 247.857 950.027 251.72 941.497 254.553C936.402 256.184 931.367 257 926.391 257C919.638 257 913.891 255.283 909.152 251.849C904.295 248.415 901.866 244.338 901.866 239.616C901.866 234.895 904.058 230.903 908.441 227.641C912.707 224.378 917.742 222.747 923.547 222.747C930.775 222.747 937.409 225.494 943.452 230.989C947.48 234.68 950.798 236.526 953.404 236.526C956.129 236.526 958.795 235.968 961.401 234.852C964.956 233.478 969.932 230.302 976.33 225.323C977.041 214.592 977.396 206.479 977.396 200.985C977.396 193.602 976.922 183.215 975.974 169.823L972.953 120.762C971.887 111.748 969.221 105.266 964.956 101.317C961.638 98.3986 957.314 96.9392 951.982 96.9392C949.968 96.9392 947.717 97.068 945.229 97.3255V92.3035Z" fill="#09702C"/>
</svg>
