<svg width="381" height="328" viewBox="0 0 381 328" fill="none" xmlns="http://www.w3.org/2000/svg">
<path fill-rule="evenodd" clip-rule="evenodd" d="M57.3888 170.577C57.6933 172.723 56.2004 174.71 54.0542 175.015C46.5264 176.083 35.1741 179.452 25.8156 185.959C16.5431 192.406 9.54327 201.667 9.54327 214.728C9.54327 227.776 16.5293 236.886 25.7766 243.152C35.1198 249.482 46.4606 252.648 53.9864 253.583C56.1376 253.85 57.6649 255.81 57.3978 257.961C57.1307 260.113 55.1703 261.64 53.0192 261.373C44.5835 260.325 31.982 256.838 21.3734 249.65C10.6689 242.397 1.69336 231.123 1.69336 214.728C1.69336 198.345 10.6551 186.939 21.3344 179.514C31.9277 172.148 44.5176 168.439 52.9513 167.243C55.0975 166.938 57.0843 168.431 57.3888 170.577Z" fill="#09702C" stroke="#1B1B1B" stroke-width="1.56998" stroke-linecap="round"/>
<path d="M57.3889 170.577C57.6935 172.723 56.2005 174.71 54.0543 175.015C46.5266 176.083 35.1742 179.452 25.8157 185.959C26.9999 180.553 23.3216 179.41 21.3345 179.514C31.9278 172.148 44.5177 168.439 52.9515 167.243C55.0977 166.938 57.0844 168.431 57.3889 170.577Z" fill="#1B1B1B" stroke="#1B1B1B" stroke-width="1.56998" stroke-linecap="round"/>
<path d="M53.5031 242.563C37.5416 239.194 5.61865 219.942 5.61865 169.888C5.61865 119.834 37.5416 99.6199 53.5031 95.7695" stroke="#1B1B1B" stroke-width="7.84992" stroke-linecap="round"/>
<rect x="2.47803" y="144.305" width="3.92496" height="10.9899" rx="0.784992" transform="rotate(-75 2.47803 144.305)" fill="#FF8832"/>
<rect x="1.69336" y="151.444" width="3.92496" height="10.9899" rx="0.784992" transform="rotate(-79.991 1.69336 151.444)" fill="#FF8832"/>
<rect x="1.69336" y="151.444" width="3.92496" height="10.9899" rx="0.784992" transform="rotate(-79.991 1.69336 151.444)" fill="#FF8832"/>
<rect x="0.209473" y="158.924" width="3.92496" height="10.9899" rx="0.784992" transform="rotate(-84.152 0.209473 158.924)" fill="#FF8832"/>
<rect x="0.123047" y="167.203" width="3.92496" height="10.9899" rx="0.784992" transform="rotate(-88.6937 0.123047 167.203)" fill="#FF8832"/>
<rect x="0.123047" y="174.268" width="3.92496" height="10.9899" rx="0.784992" transform="rotate(-88.6937 0.123047 174.268)" fill="#FF8832"/>
<rect x="0.385254" y="182.773" width="3.92496" height="10.9899" rx="0.784992" transform="rotate(-95.6315 0.385254 182.773)" fill="#FF8832"/>
<rect x="1.29346" y="189.458" width="3.92496" height="10.9899" rx="0.784992" transform="rotate(-95.6315 1.29346 189.458)" fill="#FF8832"/>
<rect x="3.41113" y="197.177" width="3.92496" height="10.9899" rx="0.784992" transform="rotate(-103.744 3.41113 197.177)" fill="#FF8832"/>
<rect x="5.76562" y="205.027" width="3.92496" height="10.9899" rx="0.784992" transform="rotate(-103.744 5.76562 205.027)" fill="#FF8832"/>
<rect width="3.92496" height="10.9899" rx="0.784992" transform="matrix(-0.383121 -0.923698 0.923698 -0.383122 9.45312 213.583)" fill="#FF8832"/>
<rect width="3.92496" height="10.9899" rx="0.784992" transform="matrix(-0.383121 -0.923698 0.923698 -0.383122 13.4019 219.784)" fill="#FF8832"/>
<rect width="3.92496" height="10.9899" rx="0.784992" transform="matrix(-0.504811 -0.86323 0.863229 -0.504813 18.5894 226.379)" fill="#FF8832"/>
<rect width="3.92496" height="10.9899" rx="0.784992" transform="matrix(-0.697453 -0.71663 0.716629 -0.697454 24.4824 232.645)" fill="#FF8832"/>
<rect width="3.92496" height="10.9899" rx="0.784992" transform="matrix(-0.818776 -0.574113 0.574112 -0.818777 31.3564 238.513)" fill="#FF8832"/>
<rect width="3.92496" height="10.9899" rx="0.784992" transform="matrix(-0.818776 -0.574113 0.574112 -0.818777 37.876 242.825)" fill="#FF8832"/>
<rect x="4.8335" y="137.165" width="3.92496" height="10.9899" rx="0.784992" transform="rotate(-71.1891 4.8335 137.165)" fill="#FF8832"/>
<rect width="3.92496" height="10.9899" rx="0.784992" transform="matrix(0.418249 -0.908333 0.908332 0.41825 7.97314 129.949)" fill="#FF8832"/>
<rect width="3.92496" height="10.9899" rx="0.784992" transform="matrix(0.504262 -0.863551 0.86355 0.504263 11.1904 123.109)" fill="#FF8832"/>
<rect width="3.92496" height="10.9899" rx="0.784992" transform="matrix(0.570363 -0.821393 0.821392 0.570364 15.1401 116.768)" fill="#FF8832"/>
<rect width="3.92496" height="10.9899" rx="0.784992" transform="matrix(0.678213 -0.734865 0.734864 0.678214 20.5332 110.429)" fill="#FF8832"/>
<rect width="3.92496" height="10.9899" rx="0.784992" transform="matrix(0.780296 -0.62541 0.625409 0.780297 26.4287 104.158)" fill="#FF8832"/>
<rect width="3.92496" height="10.9899" rx="0.784992" transform="matrix(0.896168 -0.443714 0.443713 0.896169 33.877 98.2959)" fill="#FF8832"/>
<rect x="40.8325" y="94.5576" width="3.92496" height="10.9899" rx="0.784992" transform="rotate(-17.4767 40.8325 94.5576)" fill="#FF8832"/>
<path d="M50.5965 276.448V271.498L46.6884 266.808L45.9067 216.003L70.3975 212.876L323.121 224.601L375.229 235.804L369.758 246.486V310L138.398 323.867L50.5965 276.448Z" fill="#1B1B1B"/>
<rect x="149.081" y="12.521" width="216.248" height="203.221" fill="#09702C"/>
<path d="M313.742 44.3067H331.98V70.1002V186.041L309.574 186.649M313.742 44.3067H178.001V191.251L309.574 186.649M313.742 44.3067C320.256 44.3067 323.903 48.4753 323.903 62.284V177.182C324.511 180.541 322.496 187.136 309.574 186.649" stroke="#1B1B1B" stroke-width="2.6054"/>
<path d="M313.741 44.3071H331.979V70.1006V186.041L313.781 186.535C312.527 186.664 311.129 186.708 309.572 186.649L313.781 186.535C322.942 185.594 324.437 180.137 323.902 177.183V62.2844C323.902 48.4758 320.254 44.3071 313.741 44.3071Z" fill="#1B1B1B" stroke="#1B1B1B" stroke-width="2.6054"/>
<path d="M357.773 49.7782C360.482 28.5182 343.432 27.8614 333.705 30.4668C342.896 31.4416 342.992 43.174 331.979 44.1515V52.1231V70.1004V185.258L349.435 198.807C355.272 198.182 357.425 191.078 357.773 187.604V49.7782Z" fill="#1B1B1B"/>
<path d="M178 45.6178L161.326 33.1118V142.791V207.631L178 190.753V45.6178Z" fill="#1B1B1B"/>
<path d="M357.773 49.7782C360.482 28.5182 343.432 27.8614 333.705 30.4668C342.896 31.4416 342.992 43.174 331.979 44.1515V52.1231V70.1004V185.258L349.435 198.807C355.272 198.182 357.425 191.078 357.773 187.604V49.7782Z" stroke="#1B1B1B" stroke-width="2.6054"/>
<path d="M178 45.6178L161.326 33.1118V142.791V207.631L178 190.753V45.6178Z" stroke="#1B1B1B" stroke-width="2.6054"/>
<path fill-rule="evenodd" clip-rule="evenodd" d="M144.111 0.00288944C138.262 -0.133426 133.447 4.57091 133.447 10.4217V233.82C133.447 239.93 138.655 244.732 144.744 244.214C205.568 239.043 316.342 230.346 369.109 228.739C374.811 228.566 379.396 223.921 379.396 218.216V15.6678C379.396 10.0067 374.877 5.38092 369.218 5.24902L144.111 0.00288944ZM171.331 27.5955C165.49 27.4717 160.689 32.1726 160.689 38.0147V195.995C160.689 201.929 165.637 206.666 171.565 206.407L347.43 198.72C353.003 198.476 357.396 193.887 357.396 188.308V41.7417C357.396 36.072 352.864 31.4425 347.196 31.3224L171.331 27.5955Z" fill="#E4E4D0"/>
<path d="M347.196 31.3224L347.164 32.8221L347.196 31.3224ZM347.43 198.72L347.495 200.219L347.43 198.72ZM171.565 206.407L171.631 207.905L171.565 206.407ZM369.109 228.739L369.063 227.24L369.109 228.739ZM134.947 233.82V10.4217H131.947V233.82H134.947ZM369.063 227.24C316.248 228.848 205.432 237.55 144.617 242.719L144.871 245.709C205.704 240.537 316.436 231.844 369.154 230.239L369.063 227.24ZM377.896 15.6678V218.216H380.896V15.6678H377.896ZM144.076 1.50248L369.183 6.74861L369.252 3.74943L144.146 -1.4967L144.076 1.50248ZM162.189 195.995V38.0147H159.189V195.995H162.189ZM347.364 197.221L171.5 204.908L171.631 207.905L347.495 200.219L347.364 197.221ZM355.896 41.7417V188.308H358.896V41.7417H355.896ZM171.299 29.0951L347.164 32.8221L347.227 29.8227L171.363 26.0958L171.299 29.0951ZM358.896 41.7417C358.896 35.256 353.712 29.9602 347.227 29.8227L347.164 32.8221C352.016 32.9249 355.896 36.8881 355.896 41.7417H358.896ZM347.495 200.219C353.871 199.94 358.896 194.69 358.896 188.308H355.896C355.896 193.084 352.135 197.013 347.364 197.221L347.495 200.219ZM162.189 38.0147C162.189 33.0135 166.299 28.9892 171.299 29.0951L171.363 26.0958C164.681 25.9542 159.189 31.3317 159.189 38.0147H162.189ZM159.189 195.995C159.189 202.784 164.849 208.202 171.631 207.905L171.5 204.908C166.425 205.13 162.189 201.075 162.189 195.995H159.189ZM380.896 15.6678C380.896 9.19189 375.727 3.90031 369.252 3.74943L369.183 6.74861C374.028 6.86152 377.896 10.8215 377.896 15.6678H380.896ZM369.154 230.239C375.652 230.041 380.896 224.747 380.896 218.216H377.896C377.896 223.096 373.97 227.091 369.063 227.24L369.154 230.239ZM134.947 10.4217C134.947 5.41302 139.069 1.38579 144.076 1.50248L144.146 -1.4967C137.455 -1.65264 131.947 3.7288 131.947 10.4217H134.947ZM131.947 233.82C131.947 240.806 137.904 246.301 144.871 245.709L144.617 242.719C139.407 243.162 134.947 239.055 134.947 233.82H131.947Z" fill="#1B1B1B"/>
<path d="M374.707 247.007L138.658 261.337C140.743 254.042 149.08 251.871 152.988 251.697L374.707 236.846V247.007Z" fill="#E4E4D0"/>
<path d="M374.707 300.679L138.658 318.315V300.679C138.658 279.21 161.933 272.106 173.571 271.237L374.707 258.21V300.679Z" fill="#E4E4D0"/>
<path d="M374.707 247.007L138.658 261.337C140.743 254.042 149.08 251.871 152.988 251.697L374.707 236.846V247.007Z" stroke="#1B1B1B" stroke-width="2.08432"/>
<path d="M374.707 300.679L138.658 318.315V300.679C138.658 279.21 161.933 272.106 173.571 271.237L374.707 258.21V300.679Z" stroke="#1B1B1B" stroke-width="2.08432"/>
<path d="M217.555 83.5688L214.376 101.825H210.682L214.405 80.3757H217.812L217.555 83.5688ZM226.418 87.8787L226.375 88.1794C226.27 89.1149 226.055 90.06 225.731 91.0146C225.406 91.9596 224.962 92.8283 224.399 93.6206C223.846 94.4034 223.163 95.0334 222.352 95.5107C221.54 95.9784 220.586 96.198 219.488 96.1693C218.524 96.1407 217.717 95.8973 217.068 95.4391C216.419 94.9809 215.903 94.3843 215.521 93.6492C215.149 92.9142 214.887 92.1171 214.734 91.258C214.581 90.3989 214.524 89.5588 214.562 88.7379L214.677 87.7642C214.829 86.886 215.082 85.9887 215.436 85.0723C215.798 84.1558 216.266 83.3158 216.839 82.5521C217.412 81.7885 218.094 81.1775 218.886 80.7193C219.679 80.2611 220.59 80.0463 221.621 80.075C222.681 80.1036 223.545 80.3566 224.213 80.8339C224.891 81.3112 225.401 81.9317 225.745 82.6953C226.098 83.459 226.318 84.2943 226.404 85.2011C226.499 86.108 226.504 87.0005 226.418 87.8787ZM222.681 88.1651L222.724 87.8501C222.772 87.4014 222.791 86.9098 222.781 86.3753C222.772 85.8312 222.7 85.3157 222.566 84.8288C222.433 84.3324 222.199 83.922 221.865 83.5974C221.531 83.2729 221.053 83.101 220.433 83.0819C219.851 83.0533 219.33 83.1488 218.872 83.3683C218.414 83.5783 218.018 83.8742 217.684 84.2561C217.35 84.6284 217.073 85.0579 216.853 85.5448C216.643 86.0221 216.49 86.5185 216.395 87.0339L216.037 89.4395C215.999 90.0504 216.061 90.6375 216.223 91.2007C216.385 91.7639 216.667 92.2317 217.068 92.604C217.478 92.9762 218.027 93.1719 218.715 93.191C219.383 93.2006 219.951 93.0526 220.419 92.7471C220.896 92.4417 221.287 92.036 221.593 91.53C221.908 91.0146 222.151 90.4609 222.323 89.8691C222.495 89.2772 222.614 88.7092 222.681 88.1651ZM236.04 73.8749L232.231 95.8687H228.522L232.331 73.8749H236.04ZM243.399 96.155C242.34 96.1359 241.394 95.9307 240.564 95.5393C239.733 95.1479 239.041 94.6134 238.488 93.9356C237.934 93.2579 237.528 92.4703 237.271 91.573C237.022 90.6757 236.937 89.7163 237.013 88.6949L237.07 88.1078C237.175 87.0483 237.428 86.0364 237.829 85.0723C238.24 84.0986 238.784 83.2347 239.461 82.4805C240.149 81.7169 240.955 81.1203 241.881 80.6907C242.817 80.2611 243.853 80.0607 244.988 80.0893C246.067 80.1084 246.984 80.3327 247.738 80.7623C248.492 81.1823 249.093 81.7503 249.542 82.4662C250 83.1726 250.31 83.9745 250.473 84.8718C250.635 85.7691 250.664 86.7046 250.559 87.6783L250.344 89.2677H238.545L238.96 86.6616L247.022 86.676L247.079 86.3466C247.165 85.7834 247.136 85.2536 246.993 84.7572C246.859 84.2609 246.607 83.8599 246.234 83.5545C245.871 83.2394 245.38 83.0724 244.759 83.0533C244.072 83.0342 243.49 83.1822 243.012 83.4972C242.535 83.8026 242.139 84.2083 241.824 84.7143C241.519 85.2202 241.28 85.7739 241.108 86.3753C240.936 86.9671 240.817 87.5446 240.75 88.1078L240.693 88.6806C240.645 89.2152 240.659 89.745 240.736 90.27C240.822 90.795 240.979 91.2723 241.208 91.7019C241.447 92.1314 241.776 92.4799 242.196 92.7471C242.616 93.0144 243.137 93.1576 243.757 93.1767C244.54 93.1958 245.256 93.0383 245.905 92.7042C246.564 92.3605 247.16 91.9119 247.695 91.3582L249.427 93.3199C248.988 93.969 248.444 94.5084 247.795 94.9379C247.146 95.3579 246.439 95.6682 245.676 95.8687C244.922 96.0691 244.163 96.1646 243.399 96.155ZM261.097 92.5753L262.228 85.3729C262.285 84.9147 262.256 84.4995 262.142 84.1272C262.037 83.7454 261.836 83.4399 261.54 83.2108C261.245 82.9817 260.844 82.8624 260.338 82.8528C259.889 82.8433 259.474 82.9197 259.092 83.0819C258.72 83.2442 258.405 83.4781 258.147 83.7836C257.889 84.089 257.713 84.4613 257.617 84.9004L253.923 84.9291C253.98 84.089 254.224 83.3635 254.653 82.7526C255.083 82.1321 255.627 81.6262 256.285 81.2348C256.944 80.8339 257.66 80.538 258.433 80.347C259.207 80.1561 259.965 80.0702 260.71 80.0893C261.77 80.1084 262.715 80.3327 263.545 80.7623C264.376 81.1918 265.01 81.8028 265.45 82.5951C265.889 83.3779 266.051 84.3324 265.936 85.4589L264.834 92.2173C264.748 92.771 264.686 93.3438 264.648 93.9356C264.61 94.5179 264.686 95.0763 264.877 95.6109L264.862 95.8687L261.211 95.883C261.049 95.3484 260.968 94.7995 260.968 94.2363C260.977 93.6731 261.02 93.1194 261.097 92.5753ZM262.657 86.4325L262.285 88.6806L260.152 88.6663C259.712 88.6663 259.269 88.714 258.82 88.8095C258.381 88.9049 257.97 89.0577 257.588 89.2677C257.207 89.4681 256.887 89.7402 256.629 90.0838C256.371 90.4275 256.214 90.8475 256.157 91.3439C256.109 91.7257 256.152 92.0598 256.285 92.3462C256.419 92.6326 256.62 92.8617 256.887 93.0335C257.164 93.1958 257.493 93.2817 257.875 93.2913C258.4 93.3008 258.915 93.2006 259.421 92.9906C259.927 92.771 260.366 92.4655 260.739 92.0742C261.12 91.6828 261.383 91.2294 261.526 90.7139L262.4 92.3749C262.19 92.9381 261.903 93.4535 261.54 93.9213C261.178 94.389 260.758 94.7947 260.28 95.1384C259.803 95.4725 259.283 95.7302 258.72 95.9116C258.166 96.1025 257.584 96.1932 256.973 96.1837C256.114 96.1646 255.326 95.9641 254.61 95.5823C253.904 95.2004 253.345 94.6706 252.935 93.9929C252.524 93.3151 252.338 92.5324 252.376 91.6446C252.424 90.6327 252.677 89.7927 253.135 89.1245C253.603 88.4467 254.204 87.9122 254.94 87.5208C255.675 87.1294 256.476 86.8478 257.345 86.676C258.223 86.5041 259.087 86.4182 259.937 86.4182L262.657 86.4325ZM277.19 91.5444C277.267 91.0575 277.152 90.6805 276.847 90.4132C276.541 90.1363 276.159 89.9263 275.701 89.7831C275.253 89.64 274.852 89.5254 274.498 89.4395C273.926 89.2868 273.348 89.0958 272.766 88.8667C272.193 88.6376 271.668 88.3513 271.191 88.0076C270.723 87.6544 270.351 87.2249 270.074 86.7189C269.797 86.213 269.673 85.6116 269.702 84.9147C269.74 84.0938 269.95 83.3826 270.332 82.7812C270.723 82.1703 271.224 81.6644 271.835 81.2634C272.456 80.8625 273.133 80.5618 273.868 80.3614C274.603 80.1609 275.339 80.0702 276.074 80.0893C277.085 80.0988 278.021 80.2898 278.88 80.6621C279.749 81.0343 280.446 81.588 280.971 82.323C281.505 83.0581 281.768 83.9649 281.758 85.0436L278.092 85.0293C278.112 84.5806 278.035 84.1893 277.863 83.8552C277.701 83.521 277.458 83.2681 277.133 83.0963C276.809 82.9149 276.408 82.8194 275.93 82.8099C275.529 82.8099 275.133 82.8815 274.742 83.0247C274.36 83.1678 274.031 83.3826 273.754 83.669C273.477 83.9554 273.305 84.3134 273.238 84.7429C273.181 85.0866 273.229 85.3729 273.382 85.602C273.544 85.8216 273.759 85.9982 274.026 86.1318C274.303 86.2655 274.594 86.3753 274.899 86.4612C275.205 86.5471 275.482 86.6187 275.73 86.676C276.551 86.886 277.357 87.1628 278.15 87.5065C278.942 87.8501 279.586 88.3274 280.083 88.9383C280.589 89.5493 280.823 90.3559 280.784 91.3582C280.746 92.2078 280.517 92.9428 280.097 93.5633C279.677 94.1743 279.138 94.6754 278.479 95.0668C277.83 95.4486 277.119 95.7255 276.346 95.8973C275.582 96.0787 274.833 96.1646 274.098 96.155C273.067 96.1359 272.098 95.9259 271.191 95.525C270.294 95.1241 269.568 94.5418 269.014 93.7781C268.461 93.0144 268.184 92.0789 268.184 90.9716L271.692 90.9859C271.702 91.511 271.807 91.9548 272.007 92.3176C272.217 92.6803 272.513 92.9572 272.895 93.1481C273.286 93.3294 273.74 93.4201 274.255 93.4201C274.675 93.4297 275.095 93.3772 275.515 93.2626C275.935 93.1385 276.298 92.9381 276.603 92.6612C276.909 92.3749 277.104 92.0026 277.19 91.5444ZM290.406 96.155C289.347 96.1359 288.401 95.9307 287.571 95.5393C286.74 95.1479 286.048 94.6134 285.495 93.9356C284.941 93.2579 284.535 92.4703 284.278 91.573C284.029 90.6757 283.944 89.7163 284.02 88.6949L284.077 88.1078C284.182 87.0483 284.435 86.0364 284.836 85.0723C285.247 84.0986 285.791 83.2347 286.468 82.4805C287.156 81.7169 287.962 81.1203 288.888 80.6907C289.824 80.2611 290.86 80.0607 291.996 80.0893C293.074 80.1084 293.991 80.3327 294.745 80.7623C295.499 81.1823 296.1 81.7503 296.549 82.4662C297.007 83.1726 297.317 83.9745 297.48 84.8718C297.642 85.7691 297.671 86.7046 297.566 87.6783L297.351 89.2677H285.552L285.967 86.6616L294.029 86.676L294.086 86.3466C294.172 85.7834 294.143 85.2536 294 84.7572C293.867 84.2609 293.614 83.8599 293.241 83.5545C292.879 83.2394 292.387 83.0724 291.766 83.0533C291.079 83.0342 290.497 83.1822 290.02 83.4972C289.542 83.8026 289.146 84.2083 288.831 84.7143C288.526 85.2202 288.287 85.7739 288.115 86.3753C287.943 86.9671 287.824 87.5446 287.757 88.1078L287.7 88.6806C287.652 89.2152 287.666 89.745 287.743 90.27C287.829 90.795 287.986 91.2723 288.215 91.7019C288.454 92.1314 288.783 92.4799 289.203 92.7471C289.623 93.0144 290.144 93.1576 290.764 93.1767C291.547 93.1958 292.263 93.0383 292.912 92.7042C293.571 92.3605 294.167 91.9119 294.702 91.3582L296.434 93.3199C295.995 93.969 295.451 94.5084 294.802 94.9379C294.153 95.3579 293.446 95.6682 292.683 95.8687C291.929 96.0691 291.17 96.1646 290.406 96.155ZM227.721 120.544C227.798 120.058 227.683 119.68 227.377 119.413C227.072 119.136 226.69 118.926 226.232 118.783C225.783 118.64 225.382 118.525 225.029 118.439C224.456 118.287 223.879 118.096 223.297 117.867C222.724 117.638 222.199 117.351 221.722 117.008C221.254 116.654 220.882 116.225 220.605 115.719C220.328 115.213 220.204 114.612 220.232 113.915C220.271 113.094 220.481 112.383 220.862 111.781C221.254 111.17 221.755 110.664 222.366 110.263C222.986 109.863 223.664 109.562 224.399 109.361C225.134 109.161 225.869 109.07 226.604 109.089C227.616 109.099 228.552 109.29 229.411 109.662C230.279 110.034 230.976 110.588 231.501 111.323C232.036 112.058 232.298 112.965 232.289 114.044L228.623 114.029C228.642 113.581 228.566 113.189 228.394 112.855C228.232 112.521 227.988 112.268 227.664 112.096C227.339 111.915 226.938 111.819 226.461 111.81C226.06 111.81 225.664 111.881 225.273 112.025C224.891 112.168 224.561 112.383 224.285 112.669C224.008 112.955 223.836 113.313 223.769 113.743C223.712 114.087 223.76 114.373 223.912 114.602C224.075 114.822 224.289 114.998 224.557 115.132C224.834 115.265 225.125 115.375 225.43 115.461C225.736 115.547 226.012 115.619 226.261 115.676C227.082 115.886 227.888 116.163 228.68 116.506C229.473 116.85 230.117 117.327 230.614 117.938C231.119 118.549 231.353 119.356 231.315 120.358C231.277 121.208 231.048 121.943 230.628 122.563C230.208 123.174 229.668 123.675 229.01 124.067C228.361 124.449 227.65 124.725 226.876 124.897C226.113 125.079 225.363 125.165 224.628 125.155C223.597 125.136 222.628 124.926 221.722 124.525C220.824 124.124 220.099 123.542 219.545 122.778C218.991 122.014 218.715 121.079 218.715 119.972L222.223 119.986C222.232 120.511 222.337 120.955 222.538 121.318C222.748 121.68 223.044 121.957 223.425 122.148C223.817 122.329 224.27 122.42 224.786 122.42C225.206 122.43 225.626 122.377 226.046 122.263C226.466 122.139 226.829 121.938 227.134 121.661C227.44 121.375 227.635 121.003 227.721 120.544ZM240.536 122.191C241.07 122.201 241.553 122.1 241.982 121.89C242.412 121.671 242.77 121.37 243.056 120.988C243.342 120.606 243.538 120.158 243.643 119.642L247.137 119.628C247.032 120.764 246.65 121.752 245.991 122.592C245.342 123.422 244.526 124.067 243.543 124.525C242.56 124.974 241.519 125.184 240.421 125.155C239.314 125.136 238.364 124.912 237.572 124.482C236.789 124.052 236.154 123.48 235.668 122.764C235.19 122.038 234.856 121.213 234.665 120.287C234.474 119.361 234.427 118.397 234.522 117.394L234.579 116.922C234.694 115.853 234.947 114.841 235.338 113.886C235.739 112.932 236.274 112.091 236.942 111.366C237.61 110.631 238.398 110.063 239.304 109.662C240.221 109.252 241.252 109.061 242.397 109.089C243.562 109.108 244.564 109.376 245.404 109.891C246.244 110.407 246.884 111.108 247.323 111.996C247.772 112.874 247.991 113.886 247.982 115.032L244.502 115.017C244.512 114.511 244.435 114.039 244.273 113.6C244.12 113.151 243.867 112.788 243.514 112.511C243.171 112.235 242.712 112.082 242.14 112.053C241.471 112.034 240.903 112.173 240.436 112.469C239.968 112.755 239.581 113.146 239.276 113.643C238.98 114.13 238.751 114.659 238.589 115.232C238.426 115.805 238.312 116.368 238.245 116.922L238.216 117.38C238.169 117.857 238.145 118.368 238.145 118.912C238.145 119.456 238.211 119.976 238.345 120.473C238.488 120.96 238.732 121.365 239.075 121.69C239.419 122.005 239.906 122.172 240.536 122.191ZM255.04 112.726L252.935 124.869H249.241L251.933 109.376H255.427L255.04 112.726ZM260.095 109.247L259.651 112.784C259.431 112.745 259.207 112.712 258.978 112.683C258.749 112.655 258.52 112.64 258.291 112.64C257.718 112.631 257.202 112.707 256.744 112.869C256.296 113.022 255.899 113.251 255.556 113.557C255.212 113.862 254.926 114.235 254.697 114.674C254.468 115.103 254.291 115.585 254.167 116.12L253.365 116.02C253.46 115.275 253.623 114.497 253.852 113.686C254.081 112.865 254.401 112.101 254.811 111.395C255.222 110.688 255.747 110.12 256.386 109.691C257.035 109.252 257.818 109.037 258.735 109.046C258.964 109.046 259.188 109.065 259.408 109.104C259.637 109.142 259.866 109.19 260.095 109.247ZM260.381 117.366L260.424 117.065C260.538 115.977 260.801 114.95 261.211 113.986C261.631 113.013 262.18 112.154 262.858 111.409C263.545 110.664 264.357 110.087 265.292 109.676C266.237 109.256 267.287 109.061 268.442 109.089C269.549 109.108 270.504 109.337 271.306 109.777C272.117 110.206 272.776 110.788 273.282 111.523C273.797 112.249 274.155 113.079 274.356 114.015C274.566 114.941 274.623 115.919 274.528 116.95L274.499 117.265C274.375 118.344 274.103 119.365 273.683 120.33C273.263 121.284 272.709 122.129 272.022 122.864C271.335 123.599 270.523 124.172 269.588 124.582C268.652 124.993 267.612 125.184 266.466 125.155C265.368 125.136 264.414 124.912 263.602 124.482C262.801 124.052 262.142 123.48 261.626 122.764C261.12 122.038 260.763 121.213 260.552 120.287C260.352 119.361 260.295 118.387 260.381 117.366ZM264.104 117.065L264.075 117.38C264.037 117.867 264.027 118.387 264.046 118.941C264.075 119.494 264.175 120.015 264.347 120.501C264.519 120.988 264.791 121.389 265.163 121.704C265.535 122.01 266.037 122.172 266.667 122.191C267.344 122.21 267.927 122.076 268.414 121.79C268.91 121.494 269.32 121.103 269.645 120.616C269.97 120.12 270.227 119.575 270.418 118.984C270.609 118.392 270.738 117.814 270.805 117.251L270.833 116.95C270.881 116.463 270.891 115.938 270.862 115.375C270.833 114.812 270.733 114.287 270.561 113.8C270.39 113.304 270.117 112.898 269.745 112.583C269.373 112.259 268.867 112.087 268.227 112.068C267.55 112.039 266.963 112.177 266.466 112.483C265.979 112.788 265.574 113.189 265.249 113.686C264.925 114.182 264.667 114.731 264.476 115.332C264.294 115.924 264.17 116.502 264.104 117.065ZM284.092 102.875L280.283 124.869H276.575L280.384 102.875H284.092ZM292.067 102.875L288.258 124.869H284.55L288.359 102.875H292.067ZM246.363 152.079C246.354 151.477 246.554 150.976 246.964 150.575C247.375 150.174 247.881 149.974 248.482 149.974C249.065 149.964 249.556 150.146 249.957 150.518C250.368 150.881 250.578 151.358 250.587 151.95C250.597 152.561 250.391 153.062 249.971 153.453C249.561 153.845 249.06 154.04 248.468 154.04C247.895 154.05 247.399 153.873 246.979 153.511C246.568 153.148 246.363 152.671 246.363 152.079ZM248.454 140.065C248.444 139.464 248.645 138.963 249.055 138.562C249.466 138.161 249.971 137.96 250.573 137.96C251.155 137.951 251.647 138.132 252.048 138.505C252.458 138.867 252.668 139.345 252.678 139.936C252.687 140.547 252.482 141.049 252.062 141.44C251.652 141.831 251.15 142.027 250.559 142.027C249.986 142.037 249.489 141.86 249.069 141.497C248.659 141.134 248.454 140.657 248.454 140.065ZM262.571 145.32L262.528 145.607C262.338 147 262.008 148.442 261.54 149.931C261.073 151.42 260.467 152.852 259.722 154.227C258.977 155.611 258.071 156.847 257.001 157.935C255.942 159.023 254.72 159.868 253.336 160.47L252.749 158.422C253.751 157.668 254.615 156.804 255.34 155.83C256.066 154.866 256.677 153.83 257.173 152.723C257.679 151.606 258.09 150.451 258.405 149.258C258.72 148.065 258.968 146.872 259.149 145.678L259.192 145.349C259.326 144.404 259.426 143.349 259.493 142.184C259.569 141.01 259.55 139.822 259.436 138.619C259.321 137.416 259.059 136.29 258.648 135.24C258.247 134.19 257.631 133.321 256.801 132.634L257.674 130.615C258.868 131.321 259.827 132.247 260.552 133.393C261.278 134.538 261.813 135.803 262.156 137.187C262.5 138.562 262.696 139.956 262.743 141.368C262.791 142.781 262.734 144.098 262.571 145.32Z" fill="#F4EDED"/>
<path d="M95.4093 11.2184L138.659 1.31787V242.129L44.083 202.921V28.4141L89.4169 19.2951L95.4093 11.2184Z" fill="#93937B"/>
<path d="M47.3625 195.461L93.877 214.653M47.6607 180.873L75.4877 192.908M47.959 166.286L72.2819 175.904" stroke="#1B1B1B" stroke-width="2.6054"/>
<path d="M138.659 1.31787V242.563" stroke="#F4EDED" stroke-width="2.60617" stroke-linecap="round"/>
<path d="M46.9492 269.414V218.348C67.0108 227.119 109.427 245.183 118.598 247.268C127.769 249.352 131.451 258.558 132.146 262.9L138.399 265.505V319.698L46.9492 269.414Z" fill="#93937B" stroke="#1B1B1B" stroke-width="2.6054"/>
<path d="M47.4702 258.713L138.659 303.805M47.4702 243.073L138.659 285.046M138.659 265.245L47.4702 228.509" stroke="#1B1B1B" stroke-opacity="0.25" stroke-width="2.6054"/>
<path d="M47.4702 218.087V270.195L88.6355 294.425C57.7876 256.907 75.7822 240.407 88.6355 236.846L47.4702 218.087Z" fill="#1B1B1B" stroke="#1B1B1B" stroke-width="2.6054"/>
<path d="M99.3174 16.9503L131.79 7.83134L131.79 48.7362C131.089 23.3074 109.068 18.5135 99.3174 16.9503Z" fill="#1B1B1B"/>
<path d="M131.79 99.5415L131.79 86.5145M131.79 76.0929L131.79 48.7362M131.79 48.7362L131.79 7.83135L99.3174 16.9503C109.068 18.5135 131.089 23.3074 131.79 48.7362Z" stroke="#1B1B1B" stroke-width="2.08432"/>
<path d="M101.78 221.368L132.05 234.579L132.05 193.674C131.349 219.103 111.53 219.805 101.78 221.368Z" fill="#1B1B1B"/>
<path d="M132.05 142.869L132.05 155.896M132.05 166.317L132.05 193.674M132.05 193.674L132.05 234.579L101.78 221.368C111.53 219.805 131.349 219.103 132.05 193.674Z" stroke="#1B1B1B" stroke-width="2.08432"/>
<path d="M204.412 219.225L205.216 214.177L208.348 213.975L206.065 228.263L203.063 228.457L203.297 226.992C202.753 227.648 202.174 228.137 201.56 228.458C200.953 228.779 200.231 228.967 199.393 229.021C198.013 229.11 196.931 228.687 196.146 227.752C195.369 226.809 195.104 225.555 195.352 223.989C195.647 222.183 196.339 220.733 197.43 219.637C198.528 218.542 199.854 217.944 201.407 217.843C202.122 217.797 202.733 217.898 203.239 218.148C203.751 218.39 204.142 218.749 204.412 219.225ZM203.839 223.325C204.043 222.031 203.827 221.129 203.192 220.619C202.798 220.312 202.304 220.177 201.712 220.216C200.809 220.274 200.096 220.624 199.572 221.267C199.055 221.902 198.723 222.673 198.576 223.579C198.42 224.556 198.509 225.325 198.844 225.886C199.177 226.441 199.781 226.69 200.655 226.634C201.529 226.577 202.24 226.243 202.788 225.631C203.343 225.019 203.693 224.25 203.839 223.325Z" fill="#93937B"/>
<path d="M212.155 221.587L216.955 221.276C217.022 220.548 216.86 220.011 216.47 219.665C216.087 219.312 215.566 219.157 214.909 219.199C214.194 219.245 213.606 219.482 213.146 219.909C212.692 220.335 212.362 220.895 212.155 221.587ZM219.552 218.678C219.918 219.276 220.1 219.984 220.099 220.804C220.107 221.284 220.031 221.981 219.87 222.894L211.786 223.417C211.658 224.475 211.91 225.196 212.542 225.577C212.924 225.815 213.415 225.915 214.014 225.876C214.65 225.835 215.194 225.64 215.646 225.29C215.885 225.102 216.116 224.847 216.337 224.525L219.491 224.321C219.308 224.954 218.84 225.615 218.088 226.304C216.91 227.399 215.411 228.005 213.59 228.123C212.088 228.22 210.83 227.872 209.817 227.079C208.811 226.286 208.464 224.912 208.777 222.958C209.069 221.127 209.81 219.689 210.999 218.645C212.196 217.601 213.621 217.025 215.276 216.918C216.258 216.854 217.116 216.962 217.849 217.241C218.59 217.52 219.157 217.999 219.552 218.678Z" fill="#93937B"/>
<path d="M224.173 223.75C224.16 224.237 224.249 224.577 224.438 224.77C224.755 225.114 225.43 225.253 226.463 225.187C227.07 225.147 227.566 225.035 227.951 224.85C228.336 224.665 228.556 224.411 228.61 224.087C228.659 223.777 228.55 223.55 228.285 223.407C228.02 223.264 226.991 223.055 225.197 222.78C223.91 222.569 223.029 222.258 222.554 221.846C222.073 221.442 221.901 220.825 222.04 219.997C222.196 219.02 222.756 218.154 223.721 217.4C224.693 216.639 225.955 216.208 227.509 216.108C228.982 216.013 230.141 216.2 230.983 216.671C231.825 217.135 232.213 218.01 232.146 219.295L229.058 219.495C229.067 219.142 228.998 218.868 228.852 218.673C228.571 218.319 228.021 218.169 227.205 218.222C226.533 218.265 226.038 218.39 225.72 218.596C225.41 218.802 225.235 219.031 225.197 219.283C225.142 219.601 225.257 219.821 225.542 219.943C225.821 220.072 226.852 220.259 228.636 220.502C229.819 220.682 230.676 221.014 231.207 221.498C231.732 221.99 231.931 222.633 231.805 223.429C231.632 224.478 231.059 225.363 230.084 226.086C229.109 226.802 227.711 227.219 225.891 227.337C224.034 227.457 222.718 227.196 221.941 226.555C221.172 225.907 220.872 225.039 221.041 223.952L224.173 223.75Z" fill="#93937B"/>
<path d="M238.661 214.436L235.53 214.638L235.94 212.085L239.072 211.883L238.661 214.436ZM235.323 215.901L238.455 215.698L236.765 226.279L233.633 226.481L235.323 215.901Z" fill="#93937B"/>
<path d="M248.264 220.252C248.425 219.249 248.312 218.5 247.925 218.006C247.538 217.513 246.947 217.291 246.153 217.343C245.069 217.413 244.248 217.917 243.689 218.857C243.394 219.356 243.188 219.962 243.069 220.674C242.972 221.289 243.003 221.828 243.162 222.291C243.433 223.158 244.111 223.556 245.194 223.486C245.917 223.439 246.566 223.157 247.143 222.639C247.719 222.115 248.093 221.319 248.264 220.252ZM247.308 215.116C248.015 215.346 248.542 215.818 248.888 216.532L249.129 215.008L252.131 214.814L250.518 224.852C250.305 226.217 249.885 227.262 249.259 227.988C248.188 229.236 246.402 229.94 243.903 230.102C242.393 230.199 241.202 230.014 240.33 229.545C239.466 229.076 239.066 228.317 239.129 227.269L242.488 227.052C242.528 227.37 242.632 227.593 242.802 227.723C243.096 227.954 243.637 228.044 244.424 227.993C245.537 227.921 246.335 227.54 246.818 226.849C247.132 226.406 247.369 225.68 247.53 224.67L247.641 223.991C247.271 224.463 246.896 224.823 246.516 225.072C245.833 225.532 245 225.794 244.018 225.858C242.501 225.956 241.366 225.559 240.614 224.666C239.861 223.767 239.617 222.501 239.882 220.87C240.13 219.298 240.776 217.95 241.821 216.825C242.873 215.694 244.2 215.077 245.804 214.973C246.397 214.935 246.898 214.983 247.308 215.116Z" fill="#93937B"/>
<path d="M265.183 217.39L264.04 224.516L260.876 224.72L261.898 218.285C261.993 217.728 261.978 217.306 261.854 217.019C261.639 216.495 261.105 216.261 260.253 216.316C259.205 216.384 258.423 216.828 257.906 217.649C257.635 218.083 257.449 218.627 257.347 219.28L256.433 225.007L253.355 225.206L255.047 214.645L258.027 214.452L257.777 215.996C258.263 215.426 258.702 215.01 259.096 214.748C259.8 214.28 260.639 214.014 261.615 213.951C262.836 213.872 263.786 214.096 264.466 214.622C265.153 215.141 265.392 216.064 265.183 217.39Z" fill="#93937B"/>
<path d="M274.232 218.765C274.024 218.887 273.814 218.991 273.603 219.075C273.391 219.153 273.107 219.232 272.75 219.312L272.044 219.473C271.373 219.619 270.884 219.776 270.577 219.943C270.062 220.226 269.764 220.633 269.682 221.163C269.602 221.636 269.69 221.97 269.945 222.164C270.206 222.352 270.547 222.433 270.966 222.406C271.63 222.363 272.271 222.149 272.887 221.763C273.503 221.377 273.898 220.721 274.073 219.794L274.232 218.765ZM272.562 217.595C273.149 217.493 273.573 217.386 273.832 217.273C274.296 217.077 274.558 216.8 274.617 216.444C274.685 216.011 274.565 215.724 274.256 215.584C273.947 215.437 273.467 215.385 272.817 215.427C272.087 215.474 271.544 215.669 271.186 216.013C270.937 216.266 270.741 216.599 270.599 217.011L267.619 217.204C267.837 216.274 268.248 215.495 268.853 214.867C269.821 213.882 271.299 213.325 273.286 213.197C274.579 213.113 275.691 213.269 276.622 213.663C277.553 214.058 277.916 214.892 277.711 216.167L276.924 221.022C276.87 221.358 276.815 221.765 276.758 222.243C276.721 222.604 276.74 222.846 276.815 222.969C276.897 223.092 277.031 223.189 277.218 223.26L277.163 223.667L273.804 223.884C273.744 223.677 273.711 223.481 273.703 223.295C273.696 223.11 273.701 222.898 273.719 222.66C273.224 223.102 272.676 223.487 272.077 223.813C271.352 224.2 270.571 224.42 269.733 224.474C268.664 224.543 267.823 224.329 267.21 223.83C266.605 223.325 266.382 222.571 266.544 221.568C266.754 220.267 267.466 219.289 268.678 218.634C269.34 218.278 270.28 217.993 271.498 217.779L272.562 217.595Z" fill="#93937B"/>
<path d="M279.402 215.097L279.717 213.127L281.364 213.02L281.842 210.069L284.898 209.872L284.42 212.823L286.338 212.699L286.023 214.669L284.105 214.793L283.202 220.385C283.134 220.819 283.152 221.087 283.254 221.189C283.363 221.284 283.732 221.312 284.36 221.271C284.454 221.265 284.552 221.259 284.653 221.252C284.761 221.239 284.869 221.225 284.977 221.212L284.637 223.28L283.167 223.423C281.704 223.563 280.744 223.401 280.286 222.937C279.995 222.642 279.899 222.165 280 221.505L281.05 214.991L279.402 215.097Z" fill="#93937B"/>
<path d="M298.13 212.936C298.391 213.309 298.524 213.704 298.527 214.12C298.537 214.53 298.467 215.207 298.315 216.152L297.319 222.364L294.166 222.568L295.188 216.133C295.282 215.563 295.25 215.11 295.093 214.775C294.889 214.301 294.394 214.09 293.606 214.141C292.79 214.194 292.13 214.48 291.625 214.999C291.128 215.511 290.806 216.221 290.659 217.127L289.744 222.854L286.667 223.053L288.952 208.793L292.03 208.594L291.215 213.652C291.761 213.008 292.345 212.547 292.97 212.27C293.601 211.986 294.242 211.823 294.892 211.781C295.622 211.734 296.266 211.804 296.826 211.992C297.385 212.18 297.82 212.495 298.13 212.936Z" fill="#93937B"/>
<path d="M309.159 216.382C309.331 215.321 309.217 214.521 308.82 213.983C308.429 213.439 307.782 213.196 306.879 213.254C305.976 213.312 305.235 213.645 304.658 214.252C304.081 214.853 303.706 215.685 303.535 216.746C303.364 217.807 303.474 218.61 303.865 219.155C304.263 219.699 304.914 219.942 305.817 219.884C306.72 219.826 307.46 219.493 308.037 218.885C308.614 218.278 308.988 217.444 309.159 216.382ZM305.453 222.203C303.423 222.335 301.997 221.883 301.176 220.847C300.361 219.804 300.078 218.507 300.328 216.953C300.571 215.426 301.283 214.07 302.461 212.886C303.639 211.702 305.243 211.044 307.273 210.913C309.303 210.782 310.726 211.244 311.542 212.299C312.357 213.355 312.643 214.646 312.399 216.173C312.15 217.726 311.436 219.088 310.257 220.26C309.084 221.424 307.483 222.072 305.453 222.203Z" fill="#93937B"/>
<path d="M325.629 213.483L324.486 220.608L321.322 220.813L322.345 214.377C322.439 213.82 322.424 213.399 322.3 213.112C322.085 212.588 321.551 212.353 320.699 212.409C319.651 212.476 318.869 212.921 318.352 213.742C318.081 214.176 317.895 214.719 317.793 215.373L316.879 221.1L313.801 221.299L315.493 210.737L318.473 210.545L318.223 212.088C318.709 211.519 319.148 211.103 319.542 210.841C320.246 210.372 321.086 210.107 322.061 210.044C323.282 209.965 324.232 210.188 324.912 210.714C325.599 211.234 325.838 212.156 325.629 213.483Z" fill="#93937B"/>
<path d="M58.6252 98.7881L55.075 74.5283C54.8374 72.9046 55.635 71.3045 57.0745 70.5168L74.5481 60.9558C75.1596 60.6212 75.671 60.1297 76.0297 59.5319L78.3945 55.5906C78.7985 54.9173 79.3951 54.3806 80.1073 54.05L107.325 41.4131C109.672 40.3235 112.412 41.763 112.847 44.3135L117.349 70.7225C117.655 72.5193 116.684 74.2904 115.005 74.9986L86.982 86.8154C85.9123 87.2665 85.0971 88.168 84.7557 89.2776L84.2362 90.9659C83.9103 92.0252 83.1517 92.8973 82.1478 93.3669L64.1717 101.775C61.7891 102.89 59.0061 101.391 58.6252 98.7881Z" fill="#A68A26" stroke="#1B1B1B" stroke-width="1.56998" stroke-linecap="round"/>
<path d="M75.4824 60.4446L79.0149 54.5571L85.2948 87.5268L83.7248 92.6293L75.4824 60.4446Z" fill="#1B1B1B"/>
<path d="M44 33L44 201.773" stroke="#F4EDED" stroke-width="2.35498" stroke-linecap="round"/>
<path d="M369.757 300.924V309.001L317.649 312.977C322.078 311.391 321.97 306.54 317.649 304.577L369.757 300.924Z" fill="#09702C"/>
<path d="M137.616 323.07L51.117 276.954V272.265L45.1377 269.252L45.1377 217.036L61.5386 224.846M68.0521 227.712L88.1136 237.352M369.757 300.924V309.001L317.649 312.977M369.757 300.924L374.968 300.663V274.349V258.263L369.462 258.655L369.757 247.273L374.968 246.88V236.675L348.914 230.057M369.757 300.924L317.649 304.577C321.97 306.54 322.078 311.391 317.649 312.977M144.39 326.196L317.649 312.977" stroke="#1B1B1B" stroke-width="2.35498" stroke-linecap="round" stroke-linejoin="round"/>
</svg>
