<svg width="305" height="263" viewBox="0 0 305 263" fill="none" xmlns="http://www.w3.org/2000/svg">
<path fill-rule="evenodd" clip-rule="evenodd" d="M45.9113 137.487C46.155 139.204 44.9606 140.794 43.2436 141.037C37.2214 141.892 28.1396 144.587 20.6528 149.793C13.2347 154.95 7.63491 162.359 7.63491 172.808C7.63491 183.247 13.2237 190.535 20.6216 195.547C28.0962 200.612 37.1688 203.144 43.1894 203.892C44.9103 204.106 46.1322 205.674 45.9185 207.395C45.7049 209.116 44.1366 210.338 42.4156 210.124C35.6671 209.286 25.5859 206.496 17.099 200.746C8.53537 194.944 1.35498 185.924 1.35498 172.808C1.35498 159.702 8.52434 150.577 17.0678 144.637C25.5425 138.744 35.6144 135.777 42.3614 134.82C44.0783 134.576 45.6677 135.77 45.9113 137.487Z" fill="#09702C" stroke="#1B1B1B" stroke-width="1.25599" stroke-linecap="round"/>
<path d="M45.9109 137.487C46.1546 139.204 44.9602 140.794 43.2433 141.037C37.2211 141.892 28.1392 144.587 20.6524 149.793C21.5997 145.468 18.6571 144.553 17.0674 144.637C25.5421 138.744 35.614 135.777 42.361 134.82C44.0779 134.576 45.6673 135.77 45.9109 137.487Z" fill="#1B1B1B" stroke="#1B1B1B" stroke-width="1.25599" stroke-linecap="round"/>
<path d="M42.8027 195.076C30.0335 192.381 4.49512 176.98 4.49512 136.936C4.49512 96.8928 30.0335 80.7215 42.8027 77.6412" stroke="#1B1B1B" stroke-width="6.27993" stroke-linecap="round"/>
<rect x="1.98242" y="116.47" width="3.13997" height="8.7919" rx="0.627993" transform="rotate(-75 1.98242 116.47)" fill="#FF8832"/>
<rect x="1.35498" y="122.181" width="3.13997" height="8.7919" rx="0.627993" transform="rotate(-79.991 1.35498 122.181)" fill="#FF8832"/>
<rect x="1.35498" y="122.181" width="3.13997" height="8.7919" rx="0.627993" transform="rotate(-79.991 1.35498 122.181)" fill="#FF8832"/>
<rect x="0.16748" y="128.165" width="3.13997" height="8.7919" rx="0.627993" transform="rotate(-84.152 0.16748 128.165)" fill="#FF8832"/>
<rect x="0.0986328" y="134.788" width="3.13997" height="8.7919" rx="0.627993" transform="rotate(-88.6937 0.0986328 134.788)" fill="#FF8832"/>
<rect x="0.0986328" y="140.44" width="3.13997" height="8.7919" rx="0.627993" transform="rotate(-88.6937 0.0986328 140.44)" fill="#FF8832"/>
<rect x="0.308594" y="147.244" width="3.13997" height="8.7919" rx="0.627993" transform="rotate(-95.6315 0.308594 147.244)" fill="#FF8832"/>
<rect x="1.03516" y="152.592" width="3.13997" height="8.7919" rx="0.627993" transform="rotate(-95.6315 1.03516 152.592)" fill="#FF8832"/>
<rect x="2.729" y="158.767" width="3.13997" height="8.7919" rx="0.627993" transform="rotate(-103.744 2.729 158.767)" fill="#FF8832"/>
<rect x="4.61279" y="165.047" width="3.13997" height="8.7919" rx="0.627993" transform="rotate(-103.744 4.61279 165.047)" fill="#FF8832"/>
<rect width="3.13997" height="8.7919" rx="0.627993" transform="matrix(-0.383121 -0.923698 0.923698 -0.383122 7.56299 171.892)" fill="#FF8832"/>
<rect width="3.13997" height="8.7919" rx="0.627993" transform="matrix(-0.383121 -0.923698 0.923698 -0.383122 10.7217 176.853)" fill="#FF8832"/>
<rect width="3.13997" height="8.7919" rx="0.627993" transform="matrix(-0.504812 -0.86323 0.863229 -0.504813 14.8716 182.129)" fill="#FF8832"/>
<rect width="3.13997" height="8.79191" rx="0.627993" transform="matrix(-0.697453 -0.71663 0.716629 -0.697454 19.5859 187.142)" fill="#FF8832"/>
<rect width="3.13997" height="8.79191" rx="0.627993" transform="matrix(-0.818776 -0.574113 0.574112 -0.818777 25.0854 191.836)" fill="#FF8832"/>
<rect width="3.13997" height="8.79191" rx="0.627993" transform="matrix(-0.818776 -0.574113 0.574112 -0.818777 30.3013 195.285)" fill="#FF8832"/>
<rect x="3.8667" y="110.757" width="3.13997" height="8.7919" rx="0.627993" transform="rotate(-71.1891 3.8667 110.757)" fill="#FF8832"/>
<rect width="3.13997" height="8.7919" rx="0.627993" transform="matrix(0.418249 -0.908333 0.908332 0.41825 6.37891 104.985)" fill="#FF8832"/>
<rect width="3.13997" height="8.7919" rx="0.627993" transform="matrix(0.504262 -0.863551 0.86355 0.504263 8.95215 99.5127)" fill="#FF8832"/>
<rect width="3.13997" height="8.7919" rx="0.627993" transform="matrix(0.570363 -0.821393 0.821392 0.570364 12.1123 94.4398)" fill="#FF8832"/>
<rect width="3.13997" height="8.79191" rx="0.627993" transform="matrix(0.678213 -0.734865 0.734864 0.678214 16.4268 89.3685)" fill="#FF8832"/>
<rect width="3.13997" height="8.79191" rx="0.627993" transform="matrix(0.780296 -0.62541 0.625409 0.780297 21.1436 84.3521)" fill="#FF8832"/>
<rect width="3.13996" height="8.79191" rx="0.627993" transform="matrix(0.896168 -0.443714 0.443713 0.896169 27.1021 79.6625)" fill="#FF8832"/>
<rect x="32.666" y="76.6719" width="3.13996" height="8.79191" rx="0.627993" transform="rotate(-17.4767 32.666 76.6719)" fill="#FF8832"/>
<path d="M40.4774 222.184V218.224L37.3509 214.472L36.7256 173.828L56.3182 171.327L258.497 180.706L300.183 189.669L295.806 198.215V249.697L110.719 260.119L40.4774 222.184Z" fill="#1B1B1B"/>
<rect x="119.265" y="11.0425" width="172.998" height="162.577" fill="#09702C"/>
<path d="M250.994 36.4712H265.584V57.106V149.858L247.659 150.345M250.994 36.4712H142.401V154.027L247.659 150.345M250.994 36.4712C256.205 36.4712 259.123 39.8061 259.123 50.853V142.772C259.609 145.458 257.997 150.734 247.659 150.345" stroke="#1B1B1B" stroke-width="2.08432"/>
<path d="M250.993 36.4713H265.583V57.1061V149.858L251.025 150.254C250.022 150.357 248.903 150.392 247.658 150.345L251.025 150.254C258.354 149.501 259.55 145.135 259.122 142.772V50.8531C259.122 39.8062 256.204 36.4713 250.993 36.4713Z" fill="#1B1B1B" stroke="#1B1B1B" stroke-width="2.08432"/>
<path d="M286.218 40.8482C288.386 23.8402 274.746 23.3147 266.964 25.3991C274.317 26.1789 274.393 35.5649 265.583 36.3469V42.7241V57.106V149.232L279.548 160.071C284.217 159.571 285.94 153.888 286.218 151.109V40.8482Z" fill="#1B1B1B"/>
<path d="M142.4 37.5199L129.061 27.5151V115.259V167.13L142.4 153.628V37.5199Z" fill="#1B1B1B"/>
<path d="M286.218 40.8482C288.386 23.8402 274.746 23.3147 266.964 25.3991C274.317 26.1789 274.393 35.5649 265.583 36.3469V42.7241V57.106V149.232L279.548 160.071C284.217 159.571 285.94 153.888 286.218 151.109V40.8482Z" stroke="#1B1B1B" stroke-width="2.08432"/>
<path d="M142.4 37.5199L129.061 27.5151V115.259V167.13L142.4 153.628V37.5199Z" stroke="#1B1B1B" stroke-width="2.08432"/>
<path fill-rule="evenodd" clip-rule="evenodd" d="M115.289 1.02807C110.61 0.919016 106.758 4.68247 106.758 9.36307V188.081C106.758 192.97 110.925 196.811 115.796 196.397C164.455 192.26 253.074 185.302 295.287 184.017C299.849 183.878 303.517 180.163 303.517 175.599V13.56C303.517 9.03112 299.902 5.33049 295.374 5.22497L115.289 1.02807ZM137.065 23.1022C132.392 23.0031 128.551 26.7639 128.551 31.4376V157.822C128.551 162.569 132.51 166.358 137.252 166.151L277.944 160.002C282.403 159.807 285.917 156.135 285.917 151.672V34.4191C285.917 29.8834 282.291 26.1798 277.757 26.0837L137.065 23.1022Z" fill="#FFD6BF"/>
<path d="M137.065 23.1022L137.047 23.9357L137.065 23.1022ZM137.252 166.151L137.216 165.318L137.252 166.151ZM295.287 184.017L295.262 183.184L295.287 184.017ZM115.796 196.397L115.725 195.566L115.796 196.397ZM107.592 188.081V9.36307H105.924V188.081H107.592ZM295.262 183.184C253.021 184.47 164.379 191.43 115.725 195.566L115.866 197.228C164.53 193.091 253.126 186.135 295.313 184.851L295.262 183.184ZM302.684 13.56V175.599H304.351V13.56H302.684ZM115.27 1.86157L295.355 6.05847L295.394 4.39147L115.309 0.194567L115.27 1.86157ZM129.385 157.822V31.4376H127.717V157.822H129.385ZM277.907 159.169L137.216 165.318L137.289 166.984L277.98 160.835L277.907 159.169ZM285.083 34.4191V151.672H286.751V34.4191H285.083ZM137.047 23.9357L277.739 26.9173L277.774 25.2502L137.083 22.2686L137.047 23.9357ZM286.751 34.4191C286.751 29.4298 282.762 25.3559 277.774 25.2502L277.739 26.9173C281.82 27.0037 285.083 30.337 285.083 34.4191H286.751ZM277.98 160.835C282.885 160.62 286.751 156.582 286.751 151.672H285.083C285.083 155.689 281.92 158.993 277.907 159.169L277.98 160.835ZM129.385 31.4376C129.385 27.2312 132.842 23.8466 137.047 23.9357L137.083 22.2686C131.943 22.1597 127.717 26.2965 127.717 31.4376H129.385ZM127.717 157.822C127.717 163.044 132.072 167.212 137.289 166.984L137.216 165.318C132.947 165.505 129.385 162.095 129.385 157.822H127.717ZM304.351 13.56C304.351 8.57823 300.374 4.50754 295.394 4.39147L295.355 6.05847C299.43 6.15344 302.684 9.48401 302.684 13.56H304.351ZM295.313 184.851C300.316 184.698 304.351 180.622 304.351 175.599H302.684C302.684 179.704 299.382 183.058 295.262 183.184L295.313 184.851ZM107.592 9.36307C107.592 5.15053 111.059 1.76342 115.27 1.86157L115.309 0.194567C110.162 0.074609 105.924 4.21441 105.924 9.36307H107.592ZM105.924 188.081C105.924 193.456 110.507 197.683 115.866 197.228L115.725 195.566C111.342 195.939 107.592 192.483 107.592 188.081H105.924Z" fill="#1B1B1B"/>
<path d="M299.766 198.631L110.927 210.095C112.594 204.259 119.264 202.522 122.391 202.383L299.766 190.503V198.631Z" fill="#FFD6BF"/>
<path d="M299.766 241.568L110.927 255.677V241.568C110.927 224.394 129.547 218.71 138.857 218.016L299.766 207.594V241.568Z" fill="#FFD6BF"/>
<path d="M299.766 198.631L110.927 210.095C112.594 204.259 119.264 202.522 122.391 202.383L299.766 190.503V198.631Z" stroke="#1B1B1B" stroke-width="1.66746"/>
<path d="M299.766 241.568L110.927 255.677V241.568C110.927 224.394 129.547 218.71 138.857 218.016L299.766 207.594V241.568Z" stroke="#1B1B1B" stroke-width="1.66746"/>
<path d="M174.244 67.8808L171.701 82.486H168.745L171.724 65.3263H174.45L174.244 67.8808ZM181.334 71.3288L181.3 71.5693C181.216 72.3177 181.044 73.0738 180.785 73.8374C180.525 74.5935 180.17 75.2884 179.719 75.9223C179.276 76.5485 178.73 77.0525 178.081 77.4343C177.432 77.8085 176.668 77.9842 175.79 77.9613C175.019 77.9383 174.374 77.7436 173.854 77.3771C173.335 77.0105 172.923 76.5332 172.617 75.9452C172.319 75.3571 172.109 74.7195 171.987 74.0322C171.865 73.3449 171.819 72.6728 171.85 72.0161L171.941 71.2371C172.064 70.5346 172.266 69.8167 172.548 69.0836C172.839 68.3505 173.213 67.6784 173.671 67.0675C174.129 66.4566 174.675 65.9678 175.309 65.6012C175.943 65.2347 176.672 65.0629 177.497 65.0858C178.345 65.1087 179.036 65.311 179.57 65.6929C180.113 66.0747 180.521 66.5711 180.796 67.182C181.079 67.793 181.254 68.4612 181.323 69.1867C181.399 69.9122 181.403 70.6262 181.334 71.3288ZM178.345 71.5579L178.379 71.3059C178.417 70.9469 178.433 70.5536 178.425 70.126C178.417 69.6907 178.36 69.2783 178.253 68.8888C178.146 68.4917 177.959 68.1634 177.692 67.9037C177.424 67.6441 177.043 67.5066 176.546 67.4913C176.08 67.4684 175.664 67.5448 175.298 67.7204C174.931 67.8884 174.614 68.1252 174.347 68.4306C174.08 68.7285 173.858 69.0721 173.683 69.4616C173.515 69.8434 173.392 70.2405 173.316 70.6529L173.03 72.5774C172.999 73.0661 173.049 73.5358 173.178 73.9864C173.308 74.4369 173.534 74.8111 173.854 75.1089C174.183 75.4068 174.622 75.5633 175.172 75.5786C175.706 75.5862 176.161 75.4679 176.535 75.2235C176.917 74.9791 177.23 74.6546 177.474 74.2498C177.726 73.8374 177.921 73.3945 178.058 72.921C178.196 72.4476 178.291 71.9932 178.345 71.5579ZM189.032 60.1257L185.985 77.7207H183.018L186.065 60.1257H189.032ZM194.919 77.9498C194.072 77.9345 193.316 77.7703 192.651 77.4572C191.987 77.1441 191.433 76.7165 190.99 76.1743C190.547 75.6321 190.223 75.002 190.017 74.2842C189.818 73.5663 189.749 72.7988 189.81 71.9817L189.856 71.5121C189.94 70.6644 190.143 69.8549 190.463 69.0836C190.792 68.3046 191.227 67.6135 191.769 67.0102C192.319 66.3993 192.964 65.922 193.705 65.5783C194.453 65.2347 195.282 65.0743 196.191 65.0972C197.054 65.1125 197.787 65.292 198.39 65.6356C198.993 65.9716 199.475 66.426 199.834 66.9988C200.2 67.5639 200.448 68.2054 200.578 68.9232C200.708 69.6411 200.731 70.3895 200.647 71.1684L200.475 72.4399H191.036L191.368 70.3551L197.817 70.3666L197.863 70.1031C197.932 69.6525 197.909 69.2287 197.795 68.8316C197.688 68.4345 197.485 68.1137 197.187 67.8693C196.897 67.6173 196.504 67.4837 196.008 67.4684C195.458 67.4531 194.992 67.5715 194.61 67.8235C194.228 68.0679 193.911 68.3925 193.659 68.7972C193.415 69.202 193.224 69.6449 193.086 70.126C192.949 70.5995 192.854 71.0615 192.8 71.5121L192.754 71.9703C192.716 72.3979 192.728 72.8218 192.789 73.2418C192.857 73.6618 192.983 74.0436 193.167 74.3873C193.358 74.7309 193.621 75.0097 193.957 75.2235C194.293 75.4373 194.709 75.5519 195.206 75.5672C195.832 75.5824 196.405 75.4564 196.924 75.1891C197.451 74.9142 197.928 74.5553 198.356 74.1124L199.742 75.6817C199.391 76.201 198.955 76.6325 198.436 76.9761C197.917 77.3121 197.352 77.5603 196.741 77.7207C196.137 77.8811 195.53 77.9574 194.919 77.9498ZM209.077 75.086L209.982 69.3241C210.028 68.9576 210.005 68.6254 209.914 68.3275C209.83 68.0221 209.669 67.7777 209.432 67.5944C209.196 67.4111 208.875 67.3157 208.47 67.308C208.111 67.3004 207.779 67.3615 207.474 67.4913C207.176 67.6212 206.924 67.8083 206.718 68.0526C206.511 68.297 206.37 68.5948 206.294 68.9461L203.338 68.969C203.384 68.297 203.579 67.7166 203.923 67.2279C204.266 66.7315 204.701 66.3267 205.228 66.0136C205.755 65.6929 206.328 65.4561 206.947 65.3034C207.565 65.1507 208.172 65.0819 208.768 65.0972C209.616 65.1125 210.372 65.292 211.036 65.6356C211.701 65.9793 212.208 66.468 212.56 67.1019C212.911 67.7281 213.041 68.4917 212.949 69.3929L212.067 74.7997C211.998 75.2426 211.949 75.7008 211.918 76.1743C211.888 76.6401 211.949 77.0869 212.101 77.5145L212.09 77.7207L209.169 77.7322C209.039 77.3045 208.974 76.8654 208.974 76.4148C208.982 75.9643 209.016 75.5213 209.077 75.086ZM210.326 70.1718L210.028 71.9703L208.321 71.9588C207.97 71.9588 207.615 71.997 207.256 72.0734C206.905 72.1497 206.576 72.2719 206.271 72.4399C205.965 72.6003 205.71 72.8179 205.503 73.0929C205.297 73.3678 205.171 73.7038 205.125 74.1009C205.087 74.4064 205.121 74.6737 205.228 74.9028C205.335 75.1319 205.496 75.3151 205.71 75.4526C205.931 75.5824 206.194 75.6512 206.5 75.6588C206.92 75.6664 207.332 75.5862 207.737 75.4182C208.142 75.2426 208.493 74.9982 208.791 74.6851C209.096 74.372 209.306 74.0093 209.421 73.5969L210.12 74.9257C209.952 75.3762 209.723 75.7886 209.432 76.1628C209.142 76.537 208.806 76.8616 208.424 77.1365C208.043 77.4038 207.626 77.61 207.176 77.7551C206.733 77.9078 206.267 77.9804 205.778 77.9727C205.091 77.9574 204.461 77.7971 203.888 77.4916C203.323 77.1861 202.876 76.7623 202.548 76.2201C202.22 75.6779 202.071 75.0517 202.101 74.3415C202.139 73.532 202.342 72.8599 202.708 72.3254C203.082 71.7832 203.564 71.3555 204.152 71.0424C204.74 70.7293 205.381 70.504 206.076 70.3666C206.779 70.2291 207.47 70.1604 208.149 70.1604L210.326 70.1718ZM221.952 74.2613C222.013 73.8718 221.922 73.5702 221.677 73.3563C221.433 73.1349 221.128 72.9669 220.761 72.8523C220.402 72.7377 220.081 72.6461 219.799 72.5774C219.341 72.4552 218.879 72.3025 218.413 72.1192C217.955 71.9359 217.534 71.7068 217.153 71.4319C216.778 71.1493 216.481 70.8057 216.259 70.4009C216.038 69.9962 215.938 69.5151 215.961 68.9576C215.992 68.3008 216.16 67.7319 216.465 67.2508C216.778 66.762 217.179 66.3573 217.668 66.0365C218.165 65.7158 218.707 65.4752 219.295 65.3149C219.883 65.1545 220.471 65.0819 221.059 65.0972C221.868 65.1049 222.617 65.2576 223.304 65.5554C223.999 65.8533 224.556 66.2962 224.976 66.8842C225.404 67.4722 225.614 68.1977 225.606 69.0607L222.674 69.0492C222.689 68.6903 222.628 68.3772 222.491 68.1099C222.361 67.8426 222.166 67.6402 221.907 67.5028C221.647 67.3577 221.326 67.2813 220.944 67.2737C220.624 67.2737 220.307 67.331 219.994 67.4455C219.688 67.5601 219.425 67.7319 219.203 67.961C218.982 68.1901 218.844 68.4765 218.791 68.8201C218.745 69.095 218.783 69.3241 218.905 69.5074C219.035 69.6831 219.207 69.8243 219.421 69.9313C219.642 70.0382 219.875 70.126 220.12 70.1947C220.364 70.2635 220.585 70.3207 220.784 70.3666C221.441 70.5346 222.086 70.756 222.72 71.0309C223.354 71.3059 223.869 71.6877 224.266 72.1765C224.671 72.6652 224.858 73.3105 224.828 74.1124C224.797 74.792 224.614 75.3801 224.278 75.8764C223.942 76.3652 223.51 76.7661 222.983 77.0792C222.464 77.3847 221.895 77.6062 221.276 77.7436C220.666 77.8887 220.066 77.9574 219.478 77.9498C218.653 77.9345 217.878 77.7665 217.153 77.4458C216.435 77.125 215.854 76.6592 215.411 76.0483C214.969 75.4373 214.747 74.6889 214.747 73.8031L217.554 73.8145C217.561 74.2345 217.645 74.5897 217.806 74.8798C217.974 75.17 218.21 75.3915 218.516 75.5442C218.829 75.6893 219.192 75.7619 219.604 75.7619C219.94 75.7695 220.276 75.7275 220.612 75.6359C220.948 75.5366 221.238 75.3762 221.483 75.1548C221.727 74.9257 221.884 74.6278 221.952 74.2613ZM232.525 77.9498C231.677 77.9345 230.921 77.7703 230.257 77.4572C229.592 77.1441 229.039 76.7165 228.596 76.1743C228.153 75.6321 227.828 75.002 227.622 74.2842C227.424 73.5663 227.355 72.7988 227.416 71.9817L227.462 71.5121C227.546 70.6644 227.748 69.8549 228.069 69.0836C228.397 68.3046 228.833 67.6135 229.375 67.0102C229.925 66.3993 230.57 65.922 231.311 65.5783C232.059 65.2347 232.888 65.0743 233.796 65.0972C234.659 65.1125 235.392 65.292 235.996 65.6356C236.599 65.9716 237.08 66.426 237.439 66.9988C237.806 67.5639 238.054 68.2054 238.184 68.9232C238.314 69.6411 238.336 70.3895 238.252 71.1684L238.081 72.4399H228.642L228.974 70.3551L235.423 70.3666L235.469 70.1031C235.538 69.6525 235.515 69.2287 235.4 68.8316C235.293 68.4345 235.091 68.1137 234.793 67.8693C234.503 67.6173 234.11 67.4837 233.613 67.4684C233.063 67.4531 232.597 67.5715 232.216 67.8235C231.834 68.0679 231.517 68.3925 231.265 68.7972C231.02 69.202 230.83 69.6449 230.692 70.126C230.555 70.5995 230.459 71.0615 230.406 71.5121L230.36 71.9703C230.322 72.3979 230.333 72.8218 230.394 73.2418C230.463 73.6618 230.589 74.0436 230.772 74.3873C230.963 74.7309 231.227 75.0097 231.563 75.2235C231.899 75.4373 232.315 75.5519 232.811 75.5672C233.437 75.5824 234.01 75.4564 234.53 75.1891C235.056 74.9142 235.534 74.5553 235.961 74.1124L237.347 75.6817C236.996 76.201 236.561 76.6325 236.042 76.9761C235.522 77.3121 234.957 77.5603 234.346 77.7207C233.743 77.8811 233.136 77.9574 232.525 77.9498ZM182.377 97.2613C182.438 96.8718 182.346 96.5702 182.102 96.3563C181.858 96.1349 181.552 95.9669 181.186 95.8523C180.827 95.7377 180.506 95.6461 180.223 95.5774C179.765 95.4552 179.303 95.3025 178.837 95.1192C178.379 94.9359 177.959 94.7068 177.577 94.4319C177.203 94.1493 176.905 93.8057 176.684 93.4009C176.462 92.9962 176.363 92.5151 176.386 91.9576C176.416 91.3008 176.584 90.7319 176.89 90.2508C177.203 89.762 177.604 89.3573 178.093 89.0365C178.589 88.7158 179.131 88.4752 179.719 88.3149C180.307 88.1545 180.895 88.0819 181.483 88.0972C182.293 88.1049 183.041 88.2576 183.729 88.5554C184.424 88.8533 184.981 89.2962 185.401 89.8842C185.829 90.4722 186.039 91.1977 186.031 92.0607L183.099 92.0492C183.114 91.6903 183.053 91.3772 182.915 91.1099C182.785 90.8426 182.591 90.6402 182.331 90.5028C182.071 90.3577 181.751 90.2813 181.369 90.2737C181.048 90.2737 180.731 90.331 180.418 90.4455C180.113 90.5601 179.849 90.7319 179.628 90.961C179.406 91.1901 179.269 91.4765 179.215 91.8201C179.169 92.095 179.208 92.3241 179.33 92.5074C179.46 92.6831 179.632 92.8243 179.845 92.9313C180.067 93.0382 180.3 93.126 180.544 93.1947C180.788 93.2635 181.01 93.3207 181.208 93.3666C181.865 93.5346 182.511 93.756 183.144 94.0309C183.778 94.3059 184.294 94.6877 184.691 95.1765C185.096 95.6652 185.283 96.3105 185.252 97.1124C185.222 97.792 185.038 98.3801 184.702 98.8764C184.366 99.3652 183.935 99.7661 183.408 100.079C182.889 100.385 182.32 100.606 181.701 100.744C181.09 100.889 180.491 100.957 179.903 100.95C179.078 100.935 178.303 100.767 177.577 100.446C176.859 100.125 176.279 99.6592 175.836 99.0483C175.393 98.4373 175.172 97.6889 175.172 96.8031L177.978 96.8145C177.986 97.2345 178.07 97.5897 178.23 97.8798C178.398 98.17 178.635 98.3915 178.94 98.5442C179.253 98.6893 179.616 98.7619 180.029 98.7619C180.365 98.7695 180.701 98.7275 181.037 98.6359C181.373 98.5366 181.663 98.3762 181.907 98.1548C182.152 97.9257 182.308 97.6278 182.377 97.2613ZM192.629 98.5786C193.056 98.5862 193.442 98.5061 193.786 98.338C194.129 98.1624 194.416 97.9218 194.645 97.6164C194.874 97.3109 195.03 96.952 195.114 96.5396L197.91 96.5281C197.826 97.4369 197.52 98.2273 196.993 98.8993C196.474 99.5637 195.821 100.079 195.034 100.446C194.248 100.805 193.415 100.973 192.537 100.95C191.651 100.935 190.891 100.755 190.258 100.411C189.631 100.068 189.123 99.6096 188.734 99.0368C188.352 98.4564 188.085 97.7958 187.932 97.0551C187.779 96.3143 187.741 95.543 187.818 94.7412L187.863 94.3631C187.955 93.5078 188.157 92.6983 188.471 91.9347C188.791 91.171 189.219 90.499 189.754 89.9186C190.288 89.3305 190.918 88.8762 191.644 88.5554C192.377 88.227 193.201 88.0743 194.118 88.0972C195.05 88.1125 195.851 88.3263 196.523 88.7387C197.195 89.1511 197.707 89.7124 198.058 90.4226C198.417 91.1252 198.593 91.9347 198.585 92.8511L195.802 92.8396C195.809 92.4349 195.748 92.0569 195.619 91.7056C195.496 91.3466 195.294 91.0564 195.011 90.835C194.736 90.6135 194.37 90.4913 193.912 90.4684C193.377 90.4531 192.923 90.5639 192.549 90.8006C192.174 91.0297 191.865 91.3428 191.621 91.7399C191.384 92.1294 191.201 92.5532 191.071 93.0114C190.941 93.4696 190.849 93.9202 190.796 94.3631L190.773 94.7297C190.735 95.1115 190.716 95.5201 190.716 95.9554C190.716 96.3907 190.769 96.8069 190.876 97.204C190.991 97.5935 191.185 97.918 191.46 98.1777C191.735 98.4297 192.125 98.5633 192.629 98.5786ZM204.232 91.0068L202.548 100.721H199.593L201.747 88.3263H204.542L204.232 91.0068ZM208.276 88.2232L207.921 91.0526C207.745 91.0221 207.566 90.9954 207.382 90.9724C207.199 90.9495 207.016 90.9381 206.833 90.9381C206.374 90.9304 205.962 90.9915 205.595 91.1214C205.236 91.2435 204.92 91.4268 204.645 91.6712C204.37 91.9156 204.141 92.2134 203.957 92.5647C203.774 92.9083 203.633 93.294 203.533 93.7217L202.892 93.6415C202.968 93.0458 203.098 92.4234 203.281 91.7743C203.465 91.1175 203.721 90.5066 204.049 89.9415C204.377 89.3764 204.797 88.922 205.309 88.5783C205.828 88.227 206.455 88.0552 207.188 88.0629C207.371 88.0629 207.55 88.0781 207.726 88.1087C207.909 88.1392 208.093 88.1774 208.276 88.2232ZM208.505 94.7182L208.539 94.4777C208.631 93.6071 208.841 92.7862 209.169 92.0149C209.505 91.2359 209.944 90.5486 210.486 89.9529C211.036 89.3573 211.685 88.8953 212.434 88.5669C213.19 88.2309 214.03 88.0743 214.954 88.0972C215.84 88.1125 216.603 88.2958 217.245 88.6471C217.894 88.9907 218.421 89.4566 218.826 90.0446C219.238 90.625 219.524 91.2894 219.685 92.0378C219.853 92.7785 219.899 93.5613 219.822 94.3861L219.799 94.6381C219.7 95.501 219.482 96.3181 219.146 97.0894C218.81 97.8531 218.367 98.529 217.818 99.117C217.268 99.705 216.619 100.163 215.87 100.492C215.122 100.82 214.289 100.973 213.373 100.95C212.495 100.935 211.731 100.755 211.082 100.411C210.44 100.068 209.914 99.6096 209.501 99.0368C209.096 98.4564 208.81 97.7958 208.642 97.0551C208.482 96.3143 208.436 95.5354 208.505 94.7182ZM211.483 94.4777L211.46 94.7297C211.429 95.1192 211.422 95.5354 211.437 95.9783C211.46 96.4212 211.54 96.8374 211.678 97.2269C211.815 97.6164 212.033 97.9371 212.331 98.1891C212.628 98.4335 213.029 98.5633 213.533 98.5786C214.076 98.5939 214.541 98.487 214.931 98.2579C215.328 98.0211 215.656 97.708 215.916 97.3185C216.176 96.9214 216.382 96.4861 216.535 96.0127C216.687 95.5392 216.79 95.0772 216.844 94.6266L216.867 94.3861C216.905 93.9966 216.913 93.5766 216.89 93.126C216.867 92.6754 216.787 92.2554 216.649 91.8659C216.512 91.4688 216.294 91.1443 215.996 90.8923C215.698 90.6326 215.294 90.4951 214.782 90.4799C214.24 90.457 213.77 90.5677 213.373 90.8121C212.983 91.0564 212.659 91.3772 212.399 91.7743C212.14 92.1714 211.933 92.6105 211.781 93.0916C211.636 93.5651 211.536 94.0271 211.483 94.4777ZM227.474 83.1257L224.427 100.721H221.46L224.507 83.1257H227.474ZM233.854 83.1257L230.807 100.721H227.84L230.887 83.1257H233.854ZM197.29 123.289C197.283 122.808 197.443 122.407 197.772 122.086C198.1 121.765 198.505 121.605 198.986 121.605C199.452 121.597 199.845 121.742 200.166 122.04C200.494 122.33 200.662 122.712 200.67 123.186C200.677 123.674 200.513 124.075 200.177 124.389C199.849 124.702 199.448 124.858 198.974 124.858C198.516 124.866 198.119 124.725 197.783 124.434C197.455 124.144 197.29 123.762 197.29 123.289ZM198.963 113.678C198.955 113.197 199.116 112.796 199.444 112.475C199.772 112.154 200.177 111.994 200.658 111.994C201.124 111.986 201.517 112.132 201.838 112.429C202.167 112.72 202.335 113.101 202.342 113.575C202.35 114.064 202.186 114.465 201.85 114.778C201.521 115.091 201.12 115.247 200.647 115.247C200.189 115.255 199.792 115.114 199.455 114.824C199.127 114.533 198.963 114.151 198.963 113.678ZM210.257 117.882L210.223 118.111C210.07 119.226 209.807 120.379 209.432 121.571C209.058 122.762 208.573 123.907 207.978 125.007C207.382 126.114 206.656 127.103 205.801 127.974C204.953 128.845 203.976 129.52 202.869 130.001L202.399 128.363C203.201 127.76 203.892 127.069 204.472 126.29C205.053 125.519 205.541 124.69 205.939 123.804C206.343 122.911 206.672 121.987 206.924 121.032C207.176 120.078 207.374 119.123 207.519 118.168L207.554 117.905C207.661 117.149 207.741 116.305 207.794 115.373C207.855 114.434 207.84 113.483 207.749 112.521C207.657 111.559 207.447 110.658 207.118 109.818C206.798 108.978 206.305 108.283 205.641 107.733L206.34 106.118C207.294 106.683 208.062 107.424 208.642 108.34C209.222 109.256 209.65 110.268 209.925 111.376C210.2 112.475 210.356 113.59 210.395 114.72C210.433 115.851 210.387 116.905 210.257 117.882Z" fill="#F4EDED"/>
<path d="M76.3277 10.0004L110.927 2.07996V194.729L35.2666 163.362V23.7569L71.5337 16.4618L76.3277 10.0004Z" fill="#A08170"/>
<path d="M37.89 157.394L75.1016 172.749M38.1286 145.725L60.3902 155.353M38.3672 134.055L57.8255 141.749" stroke="#1B1B1B" stroke-width="2.08432"/>
<path d="M110.927 2.07996V195.076" stroke="#F4EDED" stroke-width="2.08494" stroke-linecap="round"/>
<path d="M37.5596 216.557V175.704C53.6088 182.721 87.5415 197.172 94.8783 198.84C102.215 200.507 105.161 207.872 105.717 211.346L110.719 213.43V256.784L37.5596 216.557Z" fill="#A08170" stroke="#1B1B1B" stroke-width="2.08432"/>
<path d="M37.9761 207.996L110.927 244.07M37.9761 195.484L110.927 229.063M110.927 213.222L37.9761 183.833" stroke="#1B1B1B" stroke-width="2.08432"/>
<path d="M37.9761 175.495V217.182L70.9083 236.566C46.23 206.552 60.6257 193.351 70.9083 190.503L37.9761 175.495Z" fill="#1B1B1B" stroke="#1B1B1B" stroke-width="2.08432"/>
<ellipse cx="150.113" cy="241.568" rx="1.25059" ry="1.25059" fill="#CEA58F"/>
<ellipse cx="124.684" cy="224.477" rx="1.25059" ry="1.25059" fill="#E6BFAA"/>
<ellipse cx="137.399" cy="233.023" rx="11.4637" ry="11.4638" fill="#1B1B1B"/>
<ellipse cx="139.067" cy="233.023" rx="11.4637" ry="11.4638" fill="#FF8832" stroke="#1B1B1B" stroke-width="1.25059"/>
<ellipse cx="143.234" cy="228.437" rx="2.29275" ry="2.29275" fill="#1B1B1B"/>
<ellipse cx="138.024" cy="247.821" rx="1.25059" ry="1.25059" fill="#CEA58F"/>
<ellipse cx="122.183" cy="234.482" rx="1.25059" ry="1.25059" fill="#CEA58F"/>
<ellipse cx="153.031" cy="231.981" rx="1.25059" ry="1.25059" fill="#CEA58F"/>
<ellipse cx="127.186" cy="244.07" rx="1.25059" ry="1.25059" fill="#CEA58F"/>
<ellipse cx="124.684" cy="224.477" rx="1.25059" ry="1.25059" fill="#CEA58F"/>
<ellipse cx="150.53" cy="222.81" rx="1.25059" ry="1.25059" fill="#CEA58F"/>
<path d="M138.232 218.916C138.456 219.253 138.839 219.475 139.274 219.475C139.769 219.475 140.196 219.188 140.399 218.771L138.232 218.916Z" fill="#CEA58F"/>
<path d="M79.4541 14.5858L105.432 7.29069L105.432 40.0145C104.871 19.6716 87.2544 15.8364 79.4541 14.5858Z" fill="#1B1B1B"/>
<path d="M105.432 80.6588L105.432 70.2372M105.432 61.8999L105.432 40.0145M105.432 40.0145L105.432 7.29069L79.4541 14.5858C87.2544 15.8364 104.871 19.6716 105.432 40.0145Z" stroke="#1B1B1B" stroke-width="1.66746"/>
<path d="M81.4243 178.12L105.641 188.689L105.641 155.965C105.08 176.308 89.2246 176.869 81.4243 178.12Z" fill="#1B1B1B"/>
<path d="M105.641 115.321L105.641 125.742M105.641 134.08L105.641 155.965M105.641 155.965L105.641 188.689L81.4243 178.12C89.2246 176.869 105.08 176.308 105.641 155.965Z" stroke="#1B1B1B" stroke-width="1.66746"/>
<path d="M168.967 175.151L169.591 171.12L171.908 170.981L170.135 182.395L167.915 182.527L168.097 181.356C167.69 181.877 167.259 182.264 166.804 182.517C166.353 182.769 165.818 182.914 165.198 182.951C164.178 183.011 163.38 182.665 162.806 181.91C162.236 181.151 162.048 180.145 162.241 178.895C162.469 177.452 162.99 176.297 163.803 175.429C164.621 174.561 165.605 174.092 166.754 174.024C167.283 173.992 167.733 174.078 168.106 174.281C168.483 174.479 168.77 174.769 168.967 175.151ZM168.519 178.428C168.677 177.394 168.523 176.671 168.057 176.258C167.767 176.009 167.403 175.898 166.965 175.924C166.297 175.964 165.768 176.239 165.377 176.749C164.991 177.253 164.741 177.867 164.627 178.591C164.506 179.371 164.567 179.987 164.811 180.439C165.054 180.885 165.499 181.089 166.146 181.05C166.792 181.012 167.32 180.75 167.728 180.265C168.142 179.779 168.406 179.167 168.519 178.428Z" fill="#CEA58F"/>
<path d="M174.677 177.1L178.228 176.888C178.281 176.306 178.165 175.875 177.879 175.595C177.597 175.31 177.214 175.181 176.727 175.21C176.198 175.242 175.762 175.427 175.419 175.765C175.082 176.102 174.834 176.547 174.677 177.1ZM180.163 174.829C180.43 175.309 180.56 175.878 180.555 176.534C180.558 176.917 180.497 177.474 180.373 178.204L174.393 178.561C174.292 179.407 174.475 179.985 174.94 180.295C175.221 180.488 175.583 180.571 176.026 180.545C176.496 180.517 176.9 180.365 177.236 180.089C177.414 179.94 177.586 179.737 177.752 179.482L180.084 179.342C179.945 179.847 179.596 180.373 179.036 180.918C178.158 181.785 177.046 182.258 175.7 182.339C174.588 182.405 173.66 182.117 172.916 181.476C172.177 180.834 171.929 179.732 172.171 178.171C172.399 176.708 172.955 175.564 173.84 174.738C174.731 173.911 175.788 173.461 177.012 173.388C177.739 173.345 178.372 173.438 178.913 173.667C179.459 173.895 179.875 174.282 180.163 174.829Z" fill="#CEA58F"/>
<path d="M183.549 178.92C183.537 179.31 183.6 179.583 183.739 179.739C183.972 180.017 184.47 180.133 185.234 180.087C185.683 180.06 186.05 179.975 186.336 179.829C186.621 179.684 186.785 179.483 186.828 179.224C186.865 178.976 186.786 178.794 186.591 178.677C186.396 178.561 185.636 178.386 184.312 178.153C183.362 177.974 182.713 177.718 182.364 177.386C182.01 177.059 181.887 176.564 181.994 175.902C182.115 175.122 182.535 174.433 183.253 173.838C183.976 173.236 184.912 172.901 186.06 172.833C187.151 172.768 188.006 172.926 188.626 173.309C189.246 173.687 189.527 174.39 189.47 175.417L187.186 175.554C187.194 175.272 187.145 175.052 187.039 174.894C186.832 174.61 186.427 174.485 185.824 174.521C185.327 174.551 184.96 174.647 184.724 174.81C184.493 174.972 184.363 175.154 184.333 175.355C184.29 175.609 184.374 175.786 184.584 175.886C184.79 175.991 185.551 176.148 186.868 176.356C187.741 176.509 188.373 176.781 188.763 177.173C189.148 177.57 189.291 178.086 189.193 178.722C189.059 179.559 188.63 180.263 187.905 180.834C187.18 181.4 186.144 181.723 184.798 181.803C183.424 181.885 182.453 181.667 181.883 181.148C181.318 180.623 181.101 179.927 181.233 179.059L183.549 178.92Z" fill="#CEA58F"/>
<path d="M194.316 171.579L191.999 171.718L192.318 169.678L194.634 169.54L194.316 171.579ZM191.839 172.726L194.155 172.587L192.843 181.039L190.527 181.177L191.839 172.726Z" fill="#CEA58F"/>
<path d="M201.38 176.304C201.505 175.503 201.426 174.903 201.143 174.505C200.86 174.107 200.424 173.926 199.837 173.961C199.035 174.009 198.425 174.406 198.007 175.154C197.786 175.551 197.629 176.034 197.537 176.603C197.462 177.094 197.481 177.525 197.597 177.897C197.792 178.592 198.29 178.916 199.092 178.868C199.626 178.836 200.108 178.615 200.537 178.206C200.967 177.791 201.247 177.157 201.38 176.304ZM200.704 172.189C201.225 172.378 201.612 172.759 201.864 173.333L202.051 172.116L204.271 171.983L203.019 180.001C202.854 181.091 202.537 181.924 202.07 182.5C201.271 183.49 199.946 184.04 198.097 184.151C196.981 184.218 196.101 184.06 195.46 183.679C194.824 183.297 194.532 182.687 194.585 181.849L197.07 181.7C197.097 181.955 197.173 182.135 197.298 182.24C197.514 182.427 197.913 182.503 198.496 182.468C199.319 182.419 199.911 182.12 200.272 181.571C200.507 181.219 200.687 180.639 200.812 179.833L200.897 179.29C200.621 179.665 200.342 179.951 200.059 180.147C199.552 180.51 198.935 180.713 198.208 180.757C197.086 180.824 196.249 180.497 195.699 179.777C195.147 179.052 194.975 178.038 195.18 176.736C195.372 175.48 195.858 174.406 196.637 173.515C197.422 172.618 198.407 172.134 199.593 172.063C200.031 172.037 200.402 172.079 200.704 172.189Z" fill="#CEA58F"/>
<path d="M213.905 174.143L213.018 179.834L210.678 179.974L211.472 174.833C211.545 174.389 211.537 174.051 211.447 173.821C211.291 173.4 210.897 173.209 210.267 173.246C209.492 173.292 208.911 173.642 208.524 174.295C208.321 174.64 208.18 175.074 208.101 175.595L207.391 180.17L205.115 180.306L206.428 171.87L208.632 171.738L208.439 172.971C208.801 172.519 209.128 172.19 209.421 171.983C209.944 171.614 210.566 171.408 211.288 171.365C212.191 171.311 212.892 171.497 213.392 171.923C213.896 172.343 214.068 173.083 213.905 174.143Z" fill="#CEA58F"/>
<path d="M220.587 175.311C220.432 175.407 220.277 175.488 220.12 175.554C219.963 175.614 219.752 175.676 219.488 175.737L218.965 175.861C218.468 175.972 218.106 176.094 217.878 176.225C217.496 176.448 217.273 176.771 217.209 177.195C217.147 177.572 217.21 177.84 217.397 177.998C217.59 178.15 217.841 178.217 218.151 178.199C218.642 178.169 219.117 178.003 219.575 177.699C220.033 177.395 220.329 176.873 220.463 176.132L220.587 175.311ZM219.359 174.362C219.794 174.285 220.108 174.203 220.301 174.114C220.645 173.961 220.84 173.741 220.886 173.457C220.938 173.111 220.851 172.88 220.624 172.766C220.396 172.646 220.042 172.601 219.561 172.63C219.021 172.662 218.618 172.814 218.351 173.086C218.166 173.287 218.019 173.551 217.912 173.88L215.708 174.012C215.874 173.27 216.183 172.65 216.633 172.152C217.355 171.371 218.451 170.937 219.921 170.849C220.877 170.792 221.698 170.925 222.384 171.247C223.07 171.57 223.334 172.241 223.174 173.259L222.564 177.136C222.522 177.405 222.479 177.73 222.434 178.112C222.404 178.4 222.417 178.594 222.471 178.693C222.531 178.792 222.63 178.871 222.768 178.929L222.725 179.254L220.24 179.403C220.197 179.236 220.174 179.079 220.169 178.931C220.165 178.782 220.17 178.613 220.185 178.423C219.816 178.773 219.409 179.076 218.964 179.333C218.426 179.637 217.847 179.807 217.227 179.844C216.436 179.891 215.816 179.713 215.366 179.31C214.921 178.901 214.761 178.296 214.887 177.495C215.05 176.456 215.582 175.679 216.482 175.164C216.974 174.884 217.67 174.663 218.572 174.502L219.359 174.362Z" fill="#CEA58F"/>
<path d="M224.431 172.416L224.676 170.842L225.894 170.769L226.265 168.412L228.525 168.277L228.154 170.634L229.573 170.549L229.329 172.123L227.91 172.208L227.209 176.674C227.156 177.021 227.168 177.235 227.243 177.318C227.323 177.395 227.595 177.42 228.06 177.392C228.13 177.388 228.202 177.383 228.276 177.379C228.356 177.369 228.436 177.359 228.516 177.349L228.253 179.001L227.165 179.104C226.083 179.205 225.374 179.068 225.038 178.694C224.824 178.456 224.757 178.073 224.835 177.546L225.65 172.343L224.431 172.416Z" fill="#CEA58F"/>
<path d="M238.289 170.828C238.48 171.129 238.576 171.446 238.576 171.779C238.581 172.106 238.525 172.647 238.407 173.402L237.634 178.364L235.301 178.503L236.096 173.363C236.168 172.908 236.147 172.546 236.033 172.276C235.885 171.896 235.52 171.723 234.938 171.758C234.334 171.794 233.844 172.018 233.468 172.429C233.098 172.835 232.855 173.4 232.741 174.124L232.031 178.699L229.755 178.835L231.529 167.444L233.805 167.309L233.173 171.348C233.58 170.838 234.015 170.474 234.479 170.256C234.947 170.034 235.422 169.908 235.903 169.88C236.442 169.847 236.918 169.909 237.331 170.063C237.743 170.218 238.062 170.473 238.289 170.828Z" fill="#CEA58F"/>
<path d="M246.423 173.668C246.556 172.82 246.477 172.18 246.186 171.747C245.9 171.308 245.423 171.109 244.755 171.148C244.087 171.188 243.538 171.449 243.108 171.93C242.677 172.407 242.396 173.069 242.263 173.917C242.13 174.764 242.206 175.408 242.492 175.846C242.783 176.285 243.263 176.484 243.931 176.444C244.599 176.404 245.148 176.144 245.578 175.662C246.008 175.181 246.29 174.516 246.423 173.668ZM243.648 178.297C242.147 178.387 241.095 178.014 240.494 177.179C239.898 176.339 239.697 175.299 239.89 174.058C240.079 172.838 240.613 171.759 241.491 170.821C242.369 169.883 243.559 169.369 245.061 169.279C246.562 169.189 247.612 169.57 248.208 170.42C248.805 171.27 249.009 172.305 248.819 173.525C248.626 174.766 248.09 175.85 247.211 176.778C246.337 177.701 245.15 178.207 243.648 178.297Z" fill="#CEA58F"/>
<path d="M258.616 171.473L257.729 177.164L255.388 177.304L256.182 172.164C256.256 171.719 256.247 171.381 256.157 171.151C256.001 170.73 255.608 170.539 254.977 170.576C254.203 170.623 253.622 170.972 253.235 171.625C253.032 171.97 252.891 172.404 252.812 172.926L252.102 177.5L249.825 177.636L251.139 169.2L253.343 169.069L253.149 170.302C253.512 169.85 253.839 169.52 254.131 169.313C254.655 168.944 255.277 168.738 255.998 168.695C256.902 168.641 257.603 168.827 258.102 169.253C258.607 169.674 258.778 170.414 258.616 171.473Z" fill="#CEA58F"/>
<path d="M46.9001 80.0562L44.0599 60.6483C43.8698 59.3494 44.5079 58.0692 45.6595 57.4391L59.6384 49.7903C60.1276 49.5226 60.5367 49.1294 60.8236 48.6512L62.7155 45.4981C63.0387 44.9595 63.516 44.5301 64.0857 44.2656L85.86 34.1561C87.7374 33.2845 89.9298 34.436 90.2776 36.4765L93.8788 57.6037C94.1238 59.0411 93.3471 60.458 92.0036 61.0245L69.5855 70.4779C68.7297 70.8388 68.0776 71.5601 67.8045 72.4478L67.3889 73.7984C67.1281 74.6458 66.5213 75.3435 65.7181 75.7192L51.3373 82.4457C49.4312 83.3373 47.2048 82.1383 46.9001 80.0562Z" fill="#A68A26" stroke="#1B1B1B" stroke-width="1.25599" stroke-linecap="round"/>
<path d="M60.3862 49.3816L63.2122 44.6716L68.2361 71.0474L66.9802 75.1293L60.3862 49.3816Z" fill="#1B1B1B"/>
<path d="M57.239 69.9226L57.7163 72.3631L49.9785 77.0131L49.5368 74.8003L52.0099 66.7449C52.154 66.2387 52.3046 65.6936 52.4619 65.1096C52.6222 64.515 52.7379 63.9122 52.8091 63.3013C52.8803 62.6903 52.857 62.1055 52.7392 61.5469C52.6434 61.115 52.4994 60.7426 52.3072 60.4297C52.115 60.1169 51.8823 59.9071 51.6092 59.8002C51.336 59.6934 51.0286 59.7382 50.687 59.9348C50.2652 60.162 49.9531 60.4982 49.7505 60.9434C49.5479 61.3885 49.4332 61.8858 49.4063 62.4352C49.3848 62.9814 49.4294 63.5228 49.5401 64.0594L47.4759 65.313C47.196 64.2574 47.1277 63.2188 47.2711 62.1973C47.4145 61.1758 47.7308 60.2602 48.2202 59.4504C48.7072 58.6332 49.3312 58.0091 50.0922 57.578C50.7485 57.2011 51.3911 57.0291 52.0201 57.0619C52.6467 57.0875 53.2061 57.3414 53.6983 57.8236C54.1881 58.2985 54.556 59.0215 54.8019 59.9927C54.9716 60.6512 55.0459 61.3233 55.0249 62.0091C55.0068 62.6843 54.9281 63.361 54.7887 64.0392C54.6546 64.7141 54.4907 65.3765 54.2969 66.0262C54.1031 66.6759 53.914 67.3008 53.7299 67.9011L52.2034 72.9356L57.239 69.9226Z" fill="#1B1B1B"/>
<path d="M64.7381 56.9587L65.3037 59.8182C65.4959 60.743 65.6228 61.6851 65.6846 62.6445C65.7494 63.5933 65.7125 64.5071 65.5741 65.3858C65.441 66.2612 65.1699 67.0491 64.7608 67.7496C64.3517 68.45 63.772 69.0125 63.0218 69.4371C62.4516 69.7623 61.9259 69.9077 61.4446 69.8735C60.9609 69.832 60.5228 69.6538 60.1303 69.339C59.7378 69.0242 59.3882 68.6136 59.0814 68.1074C58.7776 67.5907 58.5115 67.0119 58.2832 66.3711C58.0548 65.7303 57.8654 65.0706 57.7148 64.3918L57.1295 61.5311C56.9427 60.6031 56.8208 59.6667 56.7638 58.7219C56.7044 57.7698 56.7451 56.858 56.886 55.9867C57.0268 55.1153 57.3003 54.3347 57.7064 53.6448C58.1179 52.9517 58.6961 52.3945 59.4409 51.9731C60.0165 51.6447 60.5422 51.4992 61.0181 51.5367C61.497 51.5636 61.9315 51.7308 62.3217 52.0383C62.7118 52.3458 63.0614 52.7564 63.3706 53.2699C63.6774 53.7761 63.945 54.3496 64.1733 54.9904C64.3993 55.6238 64.5875 56.28 64.7381 56.9587ZM63.3198 61.4956L62.5632 57.7543C62.4894 57.449 62.406 57.1145 62.3131 56.7507C62.2232 56.3764 62.1118 56.0151 61.9788 55.6666C61.8435 55.3109 61.6853 55.0038 61.5044 54.7454C61.3212 54.4796 61.1085 54.3015 60.8664 54.2109C60.6297 54.1171 60.3571 54.1499 60.0484 54.3092C59.632 54.5332 59.3294 54.8593 59.1406 55.2874C58.9494 55.7082 58.8407 56.1844 58.8144 56.716C58.7857 57.2402 58.8055 57.7747 58.8737 58.3194C58.9473 58.8608 59.0314 59.3654 59.1259 59.833L59.8906 63.5694C59.9597 63.8601 60.0404 64.1962 60.1326 64.5779C60.2279 64.9489 60.3417 65.3176 60.4741 65.6839C60.6118 66.0469 60.7735 66.365 60.9592 66.638C61.1425 66.9038 61.3536 67.0872 61.5927 67.1883C61.8294 67.2821 62.1021 67.2493 62.4108 67.0901C62.8403 66.8669 63.1495 66.5412 63.3383 66.1131C63.5247 65.6776 63.6283 65.1957 63.6492 64.6674C63.6731 64.1286 63.6471 63.5848 63.5711 63.036C63.4982 62.4767 63.4144 61.9632 63.3198 61.4956Z" fill="#1B1B1B"/>
<path d="M75.5579 58.9141L76.0351 61.3546L68.2973 66.0046L67.8557 63.7918L70.3288 55.7364C70.4728 55.2302 70.6235 54.6851 70.7807 54.1011C70.941 53.5065 71.0567 52.9037 71.1279 52.2928C71.1991 51.6818 71.1758 51.097 71.058 50.5384C70.9622 50.1064 70.8182 49.734 70.626 49.4212C70.4338 49.1084 70.2011 48.8986 69.928 48.7917C69.6548 48.6849 69.3475 48.7297 69.0058 48.9263C68.5841 49.1535 68.2719 49.4897 68.0693 49.9349C67.8668 50.38 67.752 50.8773 67.7251 51.4267C67.7036 51.9728 67.7482 52.5143 67.8589 53.0509L65.7947 54.3045C65.5148 53.2489 65.4465 52.2103 65.5899 51.1888C65.7333 50.1673 66.0497 49.2517 66.539 48.4418C67.026 47.6247 67.65 47.0006 68.411 46.5695C69.0673 46.1926 69.71 46.0205 70.3389 46.0534C70.9655 46.079 71.5249 46.3329 72.0171 46.8151C72.5069 47.29 72.8748 48.013 73.1207 48.9841C73.2904 49.6427 73.3647 50.3148 73.3437 51.0005C73.3256 51.6757 73.2469 52.3524 73.1075 53.0307C72.9734 53.7056 72.8095 54.368 72.6157 55.0177C72.4219 55.6674 72.2329 56.2923 72.0487 56.8925L70.5223 61.9271L75.5579 58.9141Z" fill="#1B1B1B"/>
<path d="M77.7627 49.2366L78.8522 48.6081C79.2244 48.367 79.5368 48.0612 79.7895 47.6908C80.0398 47.3131 80.205 46.8817 80.2851 46.3965C80.3705 45.9081 80.3462 45.3894 80.2122 44.8406C80.1093 44.3867 79.9584 44.0228 79.7596 43.7489C79.5608 43.475 79.3227 43.3078 79.0453 43.2472C78.7733 43.1834 78.4746 43.2449 78.1491 43.4317C77.8182 43.6218 77.5495 43.8838 77.3429 44.2178C77.1392 44.5412 77.0037 44.9155 76.9363 45.3406C76.8665 45.7585 76.8711 46.1971 76.9502 46.6566L74.8698 47.9199C74.6155 46.9626 74.5776 46.0369 74.7562 45.1429C74.9401 44.2456 75.2722 43.4472 75.7524 42.7478C76.2327 42.0483 76.7998 41.5065 77.4537 41.1222C78.1208 40.7388 78.7781 40.5624 79.4257 40.5928C80.0708 40.616 80.6499 40.8712 81.163 41.3583C81.6737 41.8381 82.061 42.5713 82.3249 43.5579C82.5119 44.2497 82.5638 44.9222 82.4806 45.5754C82.4028 46.2253 82.2276 46.8332 81.9549 47.3992C81.6823 47.9651 81.3499 48.4665 80.9578 48.9031C80.5657 49.3398 80.1489 49.6908 79.7073 49.9562L78.0883 50.916L77.7627 49.2366ZM78.2338 51.6284L77.9153 49.971L79.292 49.1568C79.7598 48.8931 80.2273 48.7171 80.6944 48.6287C81.1668 48.5371 81.6171 48.555 82.045 48.6825C82.476 48.7994 82.8599 49.0582 83.1967 49.459C83.5311 49.8524 83.7966 50.4097 83.9932 51.1307C84.2082 51.9281 84.2881 52.7062 84.2329 53.4649C84.1807 54.2131 84.0167 54.9148 83.741 55.57C83.4683 56.2147 83.1122 56.7914 82.6728 57.3002C82.2364 57.7985 81.7477 58.2058 81.2069 58.5221C80.7013 58.8084 80.1986 58.975 79.6987 59.0219C79.2018 59.0583 78.7313 58.9783 78.2872 58.7818C77.8462 58.5748 77.4489 58.2454 77.0954 57.7934C76.7449 57.331 76.4606 56.7457 76.2425 56.0375L78.3183 54.7901C78.4506 55.2351 78.632 55.5938 78.8625 55.8661C79.096 56.1279 79.3607 56.2879 79.6566 56.3461C79.9502 56.397 80.2651 56.3257 80.6013 56.1324C80.983 55.9205 81.2939 55.62 81.5341 55.2309C81.7743 54.8418 81.9293 54.399 81.9992 53.9025C82.0691 53.4059 82.0421 52.8889 81.9183 52.3514C81.7975 51.8033 81.6195 51.3858 81.3842 51.0989C81.1489 50.8119 80.8737 50.6495 80.5587 50.6116C80.2436 50.5736 79.8952 50.6606 79.5135 50.8725L78.2338 51.6284Z" fill="#1B1B1B"/>
<path d="M34.54 77.0132L34.54 212.032" stroke="#F4EDED" stroke-width="1.88398" stroke-linecap="round"/>
<path d="M295.806 241.765V248.227L254.12 251.407C257.663 250.139 257.576 246.258 254.12 244.688L295.806 241.765Z" fill="#09702C"/>
<path d="M110.093 259.482L40.8938 222.589V218.838L36.1104 216.428L36.1104 174.655L49.2311 180.903M54.4419 183.196L70.4911 190.908M295.806 241.765V248.227L254.12 251.407M295.806 241.765L299.975 241.557V220.505V207.636L295.57 207.95L295.806 198.844L299.975 198.53V190.366L279.131 185.072M295.806 241.765L254.12 244.688C257.576 246.258 257.663 250.139 254.12 251.407M115.512 261.983L254.12 251.407" stroke="#09702C" stroke-width="1.88398" stroke-linecap="round" stroke-linejoin="round"/>
</svg>
