<svg width="40" height="40" viewBox="0 0 40 40" fill="none" xmlns="http://www.w3.org/2000/svg">
<g clip-path="url(#clip0_1278_144)">
<mask id="mask0_1278_144" style="mask-type:luminance" maskUnits="userSpaceOnUse" x="0" y="0" width="40" height="40">
<path d="M30.9091 0H9.09091C4.07014 0 0 4.07014 0 9.09091V30.9091C0 35.9299 4.07014 40 9.09091 40H30.9091C35.9299 40 40 35.9299 40 30.9091V9.09091C40 4.07014 35.9299 0 30.9091 0Z" fill="#E4E4D0"/>
</mask>
<g mask="url(#mask0_1278_144)">
<path fill-rule="evenodd" clip-rule="evenodd" d="M21.6614 17.9643V17.9058C21.6494 17.9254 21.6329 17.945 21.6226 17.9643H21.6614Z" fill="#E4E4D0"/>
<path fill-rule="evenodd" clip-rule="evenodd" d="M-0.000488281 0.00146484V40.0015H39.9995V0.00146484H-0.000488281ZM12.441 33.2324H6.50641V15.3779H12.441V33.2324ZM9.47371 12.9409H9.4345C7.44374 12.9409 6.15336 11.5694 6.15336 9.85509C6.15336 8.10318 7.48145 6.77052 9.51256 6.77052C11.5441 6.77052 12.7926 8.10318 12.8314 9.85509C12.8314 11.5694 11.5441 12.9409 9.47371 12.9409ZM33.8456 33.2324H27.9095V23.6801C27.9095 21.281 27.0519 19.6432 24.9034 19.6432C23.2625 19.6432 22.2875 20.7459 21.858 21.814C21.7019 22.1956 21.6611 22.726 21.6611 23.261V33.2325H15.7237C15.7237 33.2325 15.8032 17.0529 15.7237 15.3779H21.6611V17.9079C22.4499 16.6941 23.8576 14.9587 27.011 14.9587C30.9176 14.9587 33.8456 17.51 33.8456 22.9937V33.2324Z" fill="#E4E4D0"/>
</g>
</g>
<defs>
<clipPath id="clip0_1278_144">
<rect width="40" height="40" fill="#E4E4D0"/>
</clipPath>
</defs>
</svg>
