<svg width="50" height="40" viewBox="0 0 50 40" fill="none" xmlns="http://www.w3.org/2000/svg">
<path d="M43.8926 0H6.10739C2.73993 0 0 3.22873 0 7.19696V32.803C0 36.7713 2.73993 40 6.10739 40H43.8926C47.2601 40 50 36.7713 50 32.803V7.19775C50.0007 3.22874 47.2607 0 43.8926 0ZM40.9083 4.6952L25 16.7728L9.09169 4.6952H40.9083ZM43.8926 35.3056H6.10739C4.93665 35.3056 3.98438 34.1826 3.98438 32.8038V7.33078L23.7708 22.3241C23.7974 22.3437 23.8259 22.357 23.8532 22.375C23.8817 22.3938 23.9109 22.4118 23.9402 22.429C24.0936 22.5221 24.2516 22.5972 24.413 22.6465C24.4296 22.652 24.4462 22.6544 24.4628 22.659C24.6401 22.7083 24.8194 22.7389 24.9987 22.7389H25C25.0013 22.7389 25.0027 22.7389 25.0027 22.7389C25.182 22.7389 25.3613 22.7091 25.5386 22.659C25.5552 22.6544 25.5718 22.652 25.5884 22.6465C25.7497 22.5972 25.9071 22.5221 26.0612 22.429C26.0904 22.4118 26.1196 22.3938 26.1482 22.375C26.1754 22.357 26.2039 22.3437 26.2305 22.3241L46.0169 7.33078V32.803C46.0163 34.1826 45.0634 35.3056 43.8926 35.3056Z" fill="#E4E4D0"/>
</svg>
