<svg width="1878" height="175" viewBox="0 0 1878 175" fill="none" xmlns="http://www.w3.org/2000/svg">
<g opacity="0.5">
<path d="M259.91 222.789L333.6 222.123C328.688 245.22 317.327 265.134 299.519 281.864C281.915 298.447 259.808 311.18 233.198 320.064C206.588 328.799 177.316 332.871 145.384 332.279C116.113 331.834 91.5495 327.171 71.6941 318.287C51.8388 309.403 36.282 297.707 25.0239 283.197C13.7657 268.539 6.29435 252.253 2.60985 234.337C-0.86995 216.422 -0.86995 198.211 2.60985 179.704L7.82955 152.831C11.9234 132.991 19.3948 113.817 30.2436 95.3099C41.0924 76.8025 55.2163 60.2939 72.6153 45.7841C90.219 31.2744 111.098 19.9478 135.252 11.8046C159.406 3.51327 186.732 -0.410299 217.232 0.0338779C248.55 0.478055 274.853 5.43804 296.141 14.9138C317.634 24.2415 334.112 37.1967 345.575 53.7793C357.038 70.362 363.281 89.6096 364.304 111.522L289.693 111.3C289.693 98.5672 287.237 87.2407 282.324 77.3207C277.616 67.4008 269.736 59.5536 258.682 53.7793C247.629 48.005 232.481 44.8958 213.24 44.4516C192.361 44.0074 174.348 46.8946 159.201 53.1131C144.054 59.3316 131.26 67.7709 120.821 78.4312C110.586 89.0914 102.501 100.936 96.5645 113.965C90.6283 126.847 86.3298 139.654 83.6687 152.387L78.142 179.926C76.0951 190.586 75.0716 202.061 75.0716 214.349C75.0716 226.638 77.1185 238.261 81.2124 249.217C85.511 260.174 92.9823 269.279 103.626 276.534C114.475 283.641 129.725 287.417 149.376 287.861C169.845 288.453 187.346 286.158 201.88 280.976C216.618 275.794 228.695 268.243 238.111 258.323C247.731 248.403 254.998 236.558 259.91 222.789Z" fill="#E4E4D0"/>
<path d="M613.327 4.47565L535.953 327.837H461.035L538.716 4.47565H613.327ZM749.346 4.47565L738.6 48.8934H393.179L403.925 4.47565H749.346Z" fill="#E4E4D0"/>
<path d="M793.266 4.47565L942.795 4.69774C970.019 5.14192 994.378 8.8434 1015.87 15.8022C1037.57 22.761 1054.25 33.1991 1065.92 47.1167C1077.79 61.0342 1082.5 78.6533 1080.04 99.9738C1078.2 117.149 1072.06 131.807 1061.62 143.947C1051.39 155.94 1037.88 166.082 1021.09 174.374C1004.51 182.665 985.678 189.55 964.595 195.028L939.724 203.023H797.564L807.697 158.827L907.178 159.049C923.554 159.049 938.701 156.903 952.62 152.609C966.539 148.167 978.105 141.801 987.316 133.509C996.527 125.07 1002.26 114.78 1004.51 102.639C1006.56 91.3864 1005.33 81.8366 1000.83 73.9894C996.322 66.1423 988.953 60.1459 978.719 56.0002C968.484 51.7065 955.793 49.4116 940.645 49.1155L858.051 48.8934L791.116 327.837H715.584L793.266 4.47565ZM965.209 327.837L897.967 182.591L973.192 182.369L1045.35 324.728V327.837H965.209Z" fill="#E4E4D0"/>
<path d="M1369.9 283.641L1359.16 327.837H1140.85L1151.6 283.641H1369.9ZM1240.02 4.47565L1162.34 327.837H1086.81L1164.49 4.47565H1240.02Z" fill="#E4E4D0"/>
<path d="M1491.88 308.858V241.693H1399.21V230.656H1491.88V163.76H1506.77V230.656H1599.81V241.693H1506.77V308.858H1491.88Z" fill="#E4E4D0"/>
<path d="M1615.79 141.949L1710.36 121.961C1717.93 128.771 1723.25 135.212 1726.32 141.282C1731.85 151.794 1735.74 166.304 1737.99 184.812C1742.29 221.234 1745.26 260.1 1746.89 301.408C1768.8 280.532 1793.87 252.919 1822.12 218.569C1830.72 208.205 1835.01 198.433 1835.01 189.253C1835.01 183.479 1830 178.001 1819.97 172.819C1810.14 167.637 1804 163.639 1801.55 160.826C1799.09 157.865 1797.86 154.089 1797.86 149.5C1797.86 142.097 1801.55 135.656 1808.92 130.178C1816.49 124.7 1825.6 121.961 1836.24 121.961C1847.5 121.961 1857.22 125.07 1865.41 131.288C1873.8 137.507 1878 144.836 1878 153.275C1878 163.195 1874.11 174.744 1866.33 187.921C1858.76 200.95 1840.85 223.381 1812.6 255.214C1776.37 295.93 1740.85 331.168 1706.06 360.928C1683.75 379.88 1665.73 393.501 1652.02 401.792C1638.3 410.232 1624.08 416.894 1609.34 421.78C1600.54 424.593 1591.84 426 1583.24 426C1571.57 426 1561.65 423.039 1553.46 417.116C1545.06 411.194 1540.87 404.161 1540.87 396.018C1540.87 387.875 1544.66 380.99 1552.23 375.364C1559.6 369.738 1568.3 366.924 1578.33 366.924C1590.81 366.924 1602.28 371.662 1612.72 381.138C1619.68 387.505 1625.41 390.688 1629.91 390.688C1634.62 390.688 1639.22 389.726 1643.73 387.801C1649.87 385.432 1658.47 379.954 1669.52 371.366C1670.75 352.859 1671.36 338.867 1671.36 329.391C1671.36 316.658 1670.54 298.743 1668.9 275.646L1663.69 191.03C1661.84 175.484 1657.24 164.305 1649.87 157.495C1644.14 152.461 1636.67 149.944 1627.45 149.944C1623.97 149.944 1620.09 150.166 1615.79 150.61V141.949Z" fill="#E4E4D0"/>
</g>
</svg>
