<svg width="209" height="160" viewBox="0 0 209 160" fill="none" xmlns="http://www.w3.org/2000/svg">
<path d="M6.00511 93.8931C17.3898 136.382 49.5637 164.677 77.8673 157.093C93.8812 152.802 105.225 137.945 109.995 118.156C125.005 146.517 149.917 163.115 172.39 157.093C200.694 149.509 214.409 108.918 203.024 66.4292C191.64 23.9409 159.466 -4.35476 131.162 3.22919C115.148 7.5201 103.804 22.3773 99.0341 42.166C84.0247 13.8049 59.1123 -2.79234 36.6396 3.22919C8.33591 10.8131 -5.37962 51.4048 6.00511 93.8931Z" fill="#E4E4D0"/>
<path d="M99.0341 42.166C103.804 22.3773 115.148 7.5201 131.162 3.22919C159.466 -4.35476 191.64 23.9409 203.024 66.4292C214.409 108.918 200.694 149.509 172.39 157.093C149.917 163.115 125.005 146.517 109.995 118.156C105.225 137.945 93.8812 152.802 77.8673 157.093C49.5637 164.677 17.3898 136.382 6.00511 93.8931C-5.37962 51.4048 8.33591 10.8131 36.6396 3.22919C59.1123 -2.79234 84.0247 13.8049 99.0341 42.166ZM99.0341 42.166L104 51.5" stroke="#09702C" stroke-width="3" stroke-linecap="round" stroke-linejoin="round"/>
<path d="M94.2112 90.2932C100.781 111.506 92.8663 131.772 76.5342 135.558C60.202 139.344 41.6368 125.218 35.0674 104.005C28.4981 82.7921 36.4124 62.5263 52.7445 58.7399C69.0766 54.9535 87.6419 69.0804 94.2112 90.2932Z" fill="#1B1B1B"/>
<path d="M44.8984 69.7207C46.7753 75.7433 44.5141 81.497 39.8478 82.5719C35.1815 83.6469 29.8771 79.6362 28.0001 73.6136C26.1232 67.5911 28.3844 61.8374 33.0507 60.7624C37.7171 59.6874 43.0214 63.6982 44.8984 69.7207Z" fill="#F4F4F4"/>
<path d="M89.4609 95.3254C91.3378 101.348 89.0766 107.102 84.4103 108.177C79.744 109.252 74.4396 105.241 72.5626 99.2183C70.6857 93.1958 72.9469 87.4421 77.6132 86.3671C82.2796 85.2921 87.5839 89.3029 89.4609 95.3254Z" fill="#FF8832"/>
<path d="M77.597 113.611C78.2057 115.619 77.4724 117.537 75.959 117.895C74.4456 118.253 72.7252 116.916 72.1165 114.909C71.5078 112.901 72.2411 110.983 73.7545 110.625C75.2679 110.267 76.9883 111.604 77.597 113.611Z" fill="#E4E4D0"/>
<path d="M191.707 90.2932C198.276 111.506 190.362 131.772 174.03 135.558C157.698 139.344 139.132 125.218 132.563 104.005C125.994 82.7921 133.908 62.5263 150.24 58.7399C166.572 54.9535 185.137 69.0804 191.707 90.2932Z" fill="#1B1B1B"/>
<path d="M183.755 95.3254C185.632 101.348 183.371 107.102 178.705 108.177C174.038 109.252 168.734 105.241 166.857 99.2183C164.98 93.1958 167.241 87.4421 171.908 86.3671C176.574 85.2921 181.878 89.3029 183.755 95.3254Z" fill="#FF8832"/>
<path d="M167.953 113.611C168.562 115.619 167.828 117.537 166.315 117.895C164.802 118.253 163.081 116.916 162.472 114.909C161.864 112.901 162.597 110.983 164.11 110.625C165.624 110.267 167.344 111.604 167.953 113.611Z" fill="#E4E4D0"/>
<path d="M138.701 69.7207C140.578 75.7433 138.316 81.497 133.65 82.5719C128.984 83.6469 123.679 79.6362 121.802 73.6136C119.925 67.5911 122.187 61.8374 126.853 60.7624C131.519 59.6874 136.824 63.6982 138.701 69.7207Z" fill="#F4F4F4"/>
</svg>
