<svg width="71" height="71" viewBox="0 0 71 71" fill="none" xmlns="http://www.w3.org/2000/svg">
<path d="M35.5001 71C40.8306 71 44 67.1485 44 62.97C44 59.4353 38.5995 46.306 36.4079 41.1235C36.0663 40.3157 34.942 40.3191 34.6048 41.1288C32.4213 46.3714 27 59.7157 27 62.97C27 67.1485 30.1695 71 35.5001 71Z" fill="#09702C"/>
<path d="M4.25011 53.3613C6.9154 57.9777 11.8356 58.7967 15.4542 56.7075C18.5154 54.9401 27.1855 43.6984 30.5778 39.2092C31.1066 38.5094 30.5415 37.5375 29.6717 37.6503C24.0397 38.3807 9.77253 40.3579 6.95423 41.985C3.33556 44.0743 1.58482 48.7449 4.25011 53.3613Z" fill="#09702C"/>
<path d="M4.25011 17.3614C6.9154 12.745 11.8356 11.926 15.4542 14.0152C18.5154 15.7825 27.1855 27.0242 30.5778 31.5134C31.1066 32.2132 30.5415 33.1851 29.6717 33.0723C24.0397 32.342 9.77253 30.3648 6.95423 28.7376C3.33556 26.6484 1.58482 21.9778 4.25011 17.3614Z" fill="#09702C"/>
<path d="M35.4999 6.89956e-07C30.1694 1.12264e-06 27 3.85152 27 8.02996C27 11.5647 32.4005 24.694 34.5921 29.8765C34.9337 30.6843 36.058 30.6809 36.3952 29.8712C38.5787 24.6286 44 11.2843 44 8.02996C44 3.85149 40.8305 2.5727e-07 35.4999 6.89956e-07Z" fill="#09702C"/>
<path d="M66.7499 17.6387C64.0846 13.0223 59.1644 12.2033 55.5458 14.2925C52.4846 16.0599 43.8145 27.3016 40.4222 31.7908C39.8934 32.4906 40.4585 33.4625 41.3283 33.3497C46.9603 32.6193 61.2275 30.6421 64.0458 29.015C67.6644 26.9257 69.4152 22.2551 66.7499 17.6387Z" fill="#09702C"/>
<path d="M66.7499 53.6386C64.0846 58.255 59.1644 59.074 55.5458 56.9848C52.4846 55.2174 43.8145 43.9758 40.4222 39.4866C39.8934 38.7868 40.4585 37.8149 41.3283 37.9277C46.9603 38.658 61.2275 40.6352 64.0458 42.2624C67.6644 44.3516 69.4152 49.0222 66.7499 53.6386Z" fill="#09702C"/>
</svg>
