<svg width="1856" height="1016" viewBox="0 0 1856 1016" fill="none" xmlns="http://www.w3.org/2000/svg">
<g clip-path="url(#clip0_623_285)">
<path d="M0 0H1869V1016H0V0Z" fill="#E4E4D0"/>
<path d="M842.519 394.5L840.084 396.416L711.569 931.416L714 934.5H838.959L841.39 932.583L890.48 727.996H1029.78L1124.71 933.05L1126.98 934.5H1259.55L1262.05 932V926.856L1261.78 925.726L1151.28 707.693C1176.5 699.929 1199.59 690.812 1220.54 680.336C1248.55 666.496 1271.19 649.524 1288.37 629.383C1306 608.885 1316.34 584.153 1319.44 555.282C1323.57 519.455 1315.66 489.58 1295.5 465.936C1275.83 442.471 1247.78 424.98 1211.56 413.36C1175.72 401.758 1135.17 395.606 1089.94 394.868L1089.9 394.867L842.519 394.5ZM1030.97 650.242L909.202 649.97L951.666 472.994L1086.29 473.356C1086.3 473.356 1086.3 473.356 1086.31 473.356C1111.15 473.844 1131.81 477.608 1148.36 484.553L1148.39 484.564C1164.92 491.261 1176.62 500.856 1183.73 513.255C1190.82 525.6 1192.84 540.765 1189.54 558.955C1185.91 578.498 1176.71 595.035 1161.87 608.635C1146.94 622.071 1128.14 632.442 1105.4 639.701C1082.64 646.719 1057.84 650.241 1030.98 650.242C1030.97 650.242 1030.97 650.242 1030.97 650.242Z" fill="#09702C" stroke="#09702C" stroke-width="5" stroke-linejoin="bevel"/>
<path d="M1817.43 1025.94L1815 1022.85H1445.98L1571.98 497.583L1569.55 494.5H1426.81L1424.37 496.417L1277.57 1108.42L1280 1111.5H1382.13H1422.74H1794.69L1797.12 1109.59L1817.43 1025.94Z" fill="#09702C" stroke="#09702C" stroke-width="5" stroke-linejoin="bevel"/>
<path d="M1361.14 247.13L1363.64 249.63H1372.26L1374.76 247.13V210.686H1426.11L1428.61 208.186V201.787L1426.11 199.287H1374.76V163L1372.26 160.5H1363.64L1361.14 163V199.287H1310L1307.5 201.787V208.186L1310 210.686H1361.14V247.13Z" fill="#09702C" stroke="#09702C" stroke-width="5" stroke-linejoin="bevel"/>
<path d="M1448.93 20.6498L1446.94 23.0957V36.5705L1449.7 39.0572C1456.32 38.373 1462.27 38.034 1467.58 38.034C1481.41 38.034 1492.38 41.8006 1500.74 49.1378C1511.55 59.1491 1518.57 75.8216 1521.4 99.6772L1529.51 231.245L1529.51 231.268C1532.06 267.181 1533.32 294.983 1533.32 314.704C1533.32 329.17 1532.4 350.497 1530.54 378.719C1513.82 391.657 1500.99 399.757 1491.97 403.241L1491.89 403.274C1485.19 406.141 1478.36 407.564 1471.4 407.564C1468.47 407.564 1464.92 406.523 1460.68 404.165C1456.45 401.815 1451.68 398.236 1446.36 393.364L1446.35 393.357C1429.73 378.256 1411.33 370.595 1391.22 370.595C1375.14 370.595 1361.08 375.121 1349.15 384.227C1336.87 393.365 1330.5 404.77 1330.5 418.356C1330.5 432.044 1337.61 443.67 1351.11 453.214C1364.33 462.776 1380.29 467.5 1398.86 467.5C1412.5 467.5 1426.28 465.266 1440.18 460.816L1440.21 460.808C1463.3 453.145 1485.59 442.698 1507.06 429.473C1528.55 416.47 1556.66 395.179 1591.37 365.671L1591.38 365.665C1645.56 319.281 1700.84 264.378 1757.22 200.966L1757.22 200.963C1801.1 151.47 1829.1 116.399 1841.02 95.8796C1853.22 75.1886 1859.5 56.7737 1859.5 40.7166C1859.5 26.6117 1852.44 14.5318 1838.93 4.51249C1825.73 -5.51834 1810.08 -10.5 1792.1 -10.5C1775.1 -10.5 1760.41 -6.11419 1748.16 2.75878L1748.13 2.77811C1736.21 11.6465 1729.94 22.3463 1729.94 34.8429C1729.94 42.4484 1731.99 48.921 1736.24 54.0591L1736.29 54.1073C1738.43 56.5648 1742.01 59.366 1746.83 62.5051C1751.69 65.6718 1757.96 69.2816 1765.64 73.3321L1765.66 73.3419C1773.31 77.3005 1778.87 81.2853 1782.5 85.2468C1786.1 89.1831 1787.69 92.9843 1787.69 96.6888C1787.69 110.169 1781.38 124.822 1768.22 140.701L1768.21 140.709C1726.06 192.017 1688.49 233.614 1655.49 265.52C1652.9 203.265 1648.36 144.586 1641.87 89.4859L1641.86 89.477C1638.35 60.5458 1632.25 37.6435 1623.47 20.9143C1618.51 11.0982 1610 0.845178 1598.1 -9.85815L1595.91 -10.4459L1448.93 20.6498Z" fill="#09702C" stroke="#09702C" stroke-width="5" stroke-linejoin="bevel"/>
<path d="M182.479 510.419C228.297 511.269 270.36 505.42 308.642 492.836L308.654 492.832C346.926 480.038 378.812 461.669 404.242 437.682C430.017 413.433 446.497 384.522 453.619 350.995L451.151 347.976L345.968 348.928L343.635 350.589C336.736 369.953 326.547 386.57 313.078 400.477L313.059 400.496C299.928 414.349 283.044 424.942 262.328 432.236L262.318 432.239C241.945 439.513 217.291 442.775 188.288 441.935L188.272 441.935C160.479 441.306 139.245 435.96 124.304 426.167C109.502 416.06 99.1898 403.442 93.2559 388.309C87.5267 372.948 84.6555 356.64 84.6555 339.366C84.6555 321.943 86.1043 305.705 88.9914 290.646C88.992 290.642 88.9927 290.639 88.9934 290.635L96.8742 251.314C96.8749 251.311 96.8756 251.307 96.8764 251.304C100.633 233.308 106.705 215.185 115.105 196.934L115.109 196.924C123.461 178.57 134.837 161.877 149.253 146.839C163.892 131.873 181.857 119.995 203.19 111.226C224.418 102.5 249.77 98.4041 279.318 99.0332C306.586 99.6637 327.777 104.077 343.078 112.081C358.443 120.118 369.268 130.961 375.724 144.584L375.743 144.621C382.56 158.407 386.002 174.207 386.002 192.079L388.494 194.579L494.993 194.897L497.497 192.28C496.017 160.537 486.974 132.566 470.323 108.445C453.658 84.3042 429.744 65.515 398.713 52.0279C367.932 38.3108 330.034 31.1867 285.107 30.5487C241.342 29.9105 202.045 35.5464 167.249 47.5056C132.52 59.2305 102.444 75.5578 77.058 96.5103L77.047 96.5195C52.0029 117.433 31.6506 141.247 16.0115 167.962C0.396572 194.635 -10.3711 222.295 -16.2728 250.934L-16.2785 250.962L-23.729 289.371L-23.7318 289.386C-28.7551 316.138 -28.758 342.485 -23.729 368.41L-23.7236 368.437C-18.3876 394.417 -7.56252 418.042 8.73482 439.29L8.74234 439.299C25.106 460.417 47.6654 477.369 76.3125 490.203C105.05 503.078 140.469 509.781 182.479 510.419ZM182.479 510.419C182.479 510.419 182.48 510.419 182.48 510.419L182.518 507.919L182.471 510.419C182.474 510.419 182.476 510.419 182.479 510.419ZM451.174 350.476C450.996 351.314 450.812 352.149 450.622 352.981L451.196 352.975L451.174 350.476ZM451.174 350.476L448.728 349.956C448.69 350.137 448.651 350.318 448.612 350.499L451.174 350.476Z" fill="#09702C" stroke="#09702C" stroke-width="5" stroke-linejoin="bevel"/>
<path d="M414 298.945H615.684L514.639 719.416L517.07 722.5H630.866L633.298 720.582L734.222 298.945H938.677L941.107 297.033L957.43 229.588L955 226.5H748.394H635.064H430.323L427.893 228.412L411.57 295.857L414 298.945Z" fill="#09702C" stroke="#09702C" stroke-width="5" stroke-linejoin="bevel"/>
<path d="M1138.92 507.816C1148.67 508.835 1174.96 504.207 1202.04 477.543C1235.89 444.213 1371.78 317.878 1463.47 250.118C1536.82 195.91 1535.4 186.684 1544.84 178.036C1577.9 177.833 1596.71 186.298 1592.11 225.492C1566.95 248.887 1512.62 295.745 1505.25 305.457C1496.04 317.598 1335.58 473.637 1247.54 536.141C1229.46 548.981 1213.34 577.175 1215.49 598.399C1215.64 599.213 1215.72 599.883 1215.76 600.402C1215.65 599.742 1215.56 599.074 1215.49 598.399C1214.26 591.383 1208.66 573.688 1192.37 550.349C1174.19 524.302 1149.16 511.141 1138.92 507.816Z" fill="#FF8832"/>
<path d="M1198.66 487.5C1202.99 485.667 1214.86 484.9 1227.66 496.5M1212.66 476C1216.49 474.833 1225.76 474 1232.16 480M1227.66 462C1229.83 461.5 1234.96 461.2 1238.16 464" stroke="#1B1B1B" stroke-width="2" stroke-linecap="round"/>
<path d="M1181.05 533.428C1140.92 490.599 1092.55 495.842 1073.1 505.196C1073.1 505.196 1057.92 511.042 1053.44 518.535C1050.17 524.003 1050.87 532.556 1050.87 532.556C1071.52 513.222 1118.12 500.906 1168.01 550.408C1220.06 602.061 1204.39 658.056 1190.39 673.254C1205.85 662.154 1215.67 647.57 1218.65 641.666C1222.84 623.432 1221.17 576.256 1181.05 533.428Z" fill="#FF8832"/>
<path d="M1166.83 550.552C1218.37 601.989 1205.35 647.199 1195.01 664.928C1199.5 661.684 1204.17 655.797 1205.68 652.188C1214.33 631.566 1223.25 595.592 1170.88 543.766C1118.51 491.94 1069.38 509.62 1054.77 523.458L1054.17 529.511C1074.36 512.127 1117.43 501.258 1166.83 550.552Z" fill="#1B1B1B" stroke="#1B1B1B" stroke-width="2" stroke-linecap="round" stroke-linejoin="round"/>
<path d="M1587.99 223.763C1589.55 193.191 1569.5 184.574 1559.28 184.087C1588.36 205.397 1544.13 259.932 1518.38 284.536L1587.99 223.763Z" fill="#1B1B1B"/>
<path d="M1510.37 292.087L1489.18 312.544M1559.28 184.087C1569.5 184.574 1589.55 193.191 1587.99 223.763L1518.38 284.536C1544.13 259.932 1588.36 205.397 1559.28 184.087Z" stroke="#1B1B1B" stroke-width="2" stroke-linecap="round" stroke-linejoin="round"/>
<path d="M1173.87 521.016C1174.54 521.373 1175.32 521.85 1176.19 522.454C1207.39 540.874 1246.16 525.347 1269.27 510.416C1272.78 507.796 1276.48 505.115 1280.37 502.379C1277.31 504.89 1273.56 507.643 1269.27 510.416C1229.54 540.036 1213.37 561.973 1210.2 569.704C1197.95 542.157 1183.64 527.637 1176.19 522.454C1175.41 521.996 1174.64 521.517 1173.87 521.016Z" fill="#1B1B1B"/>
<path d="M1287.59 497.888L1317.48 472.84M1173.87 521.016C1180.28 524.43 1196.52 538.947 1210.2 569.704C1213.65 561.289 1232.5 536.043 1280.37 502.379C1260.41 518.745 1211.18 545.385 1173.87 521.016Z" stroke="#1B1B1B" stroke-width="2" stroke-linecap="round" stroke-linejoin="round"/>
<path d="M1056.58 640.597C998.251 589.571 967.198 610.319 958.962 627.072C958.349 617.892 987.949 590.893 1002.83 578.541C1017.92 564.504 1042.97 540.48 1052.9 532.603C1079.3 511.658 1117.95 501.457 1164.73 549.188C1206.47 591.775 1207.62 631.602 1196.9 655.781C1191.05 668.987 1181.39 674.027 1173.49 680.396C1151.14 698.425 1145.76 700.288 1118.25 723.673C1096.25 742.38 1080.48 753.422 1075.35 756.604C1093.4 739.197 1114.91 691.624 1056.58 640.597Z" fill="#807970" stroke="#1B1B1B" stroke-width="2" stroke-linecap="round" stroke-linejoin="round"/>
<path d="M1186.59 658.975L1099.4 726.435C1108.31 709.805 1125.13 684.126 1140.7 677.074C1160.15 668.258 1181.93 589.131 1192.01 612.511C1200.07 631.215 1191.76 651.281 1186.59 658.975Z" fill="#1B1B1B" stroke="#1B1B1B" stroke-width="5" stroke-linecap="round"/>
<path d="M1118.66 519.692L1010.98 610.569C1022.82 615.291 1043.74 628.426 1053.29 636.307L1158.98 545.563C1144.55 527.685 1125.95 521.21 1118.66 519.692Z" fill="#B0A289"/>
<path d="M821.133 643.89C840.982 634.947 919.952 658.24 957.998 627.637C970.391 610.607 1008.1 590.015 1059.81 643.89C1111.51 697.764 1091.65 740.483 1075.25 755.108C1059.81 771.709 1022.04 797 934.035 826.141C882.025 843.365 942.317 815.196 913.482 826.141C884.647 837.087 895.853 809.78 881.951 819.227C868.05 828.674 878.192 807.952 859.434 812.212C840.676 816.471 850.353 803.798 835.919 805.263C821.484 806.728 830.928 790.563 816.46 791.529C801.993 792.495 822.479 776.595 798.099 771.709C773.719 766.822 807.544 763.06 787.92 754.348C768.295 745.637 799.692 743.039 780.367 731.3C761.042 719.562 794.533 710.811 778.501 703.363C762.469 695.914 782.525 696.078 777.035 681.411C772.644 669.678 797.754 658.981 810.857 655.099C806.013 655.089 801.285 652.832 821.133 643.89Z" fill="#D4BEA4"/>
<path d="M1037.66 636C1006.86 618 1012 640.5 946.5 640.5C973 632 970.661 620.5 983.661 614.5C997.581 608.075 1030.83 630.833 1037.66 636Z" fill="#1B1B1B" stroke="#1B1B1B" stroke-width="2" stroke-linecap="round"/>
<path d="M1079.7 664.109C1073.64 655.995 1068.97 650.962 1065.03 647.049L1170.25 556.837C1175.36 561.307 1182.05 570.916 1184.59 576.425L1079.7 664.109Z" fill="#B0A289"/>
<path d="M993.217 607.245C1005.66 608.419 1037.33 617.93 1064.5 646.583C1091.67 675.237 1096.2 703.598 1095.07 714.196" stroke="white" stroke-width="5" stroke-linecap="round"/>
<path d="M810.857 655.099C806.013 655.089 801.285 652.832 821.133 643.89C819.256 638.963 821.7 630.588 846.5 636.5C871.3 642.412 899.833 646.353 908 643.89C939 641.5 922.208 654.015 978.5 671.5C1114 713.589 1038.5 775 1038.5 775C1026 791.529 963.857 817.094 934.035 826.141C882.025 843.365 942.317 815.196 913.482 826.141C884.647 837.087 895.853 809.78 881.951 819.227C868.05 828.674 878.192 807.952 859.434 812.212C840.676 816.471 850.353 803.798 835.919 805.263C821.484 806.728 830.928 790.563 816.46 791.529C801.993 792.495 822.479 776.595 798.099 771.709C773.719 766.822 807.544 763.06 787.919 754.348C768.295 745.637 799.692 743.039 780.367 731.3C761.042 719.562 794.533 710.811 778.501 703.363C762.469 695.914 782.525 696.078 777.035 681.411C772.644 669.678 797.754 658.981 810.857 655.099Z" fill="#1B1B1B"/>
<path d="M517.638 904.5C404.838 884.5 975.638 867 1034.14 778L918.388 767.5L802.638 757C14.6381 805.5 175.638 894.5 299.638 926.5C398.838 952.1 56.9714 1021.83 -126.362 1053.5C-293.362 1077.17 -625.862 1135.5 -619.862 1179.5C-612.362 1234.5 -734.362 1453.5 -56.3619 1453.5C-494.362 1403.5 68.8047 1166 405.138 1053.5C509.638 1018.55 630.438 924.5 517.638 904.5Z" fill="#1B1B1B"/>
<path d="M833.536 652.924C837.106 656.361 849.262 661.796 869.323 656.047C894.4 648.86 875.576 659.638 891.009 665.623C906.443 671.608 905.91 663.626 930.125 688.568C954.341 713.51 920.651 734.301 940.94 737.957C961.229 741.613 927.738 750.364 944.867 759.242C961.997 768.121 948.861 781.526 959.471 782.822C970.081 784.118 934.728 802.514 947.766 802.646C960.803 802.777 946.403 812.258 938.188 809.299C931.615 806.931 924.296 811.396 921.459 813.924" stroke="#E4E4D0" stroke-width="2" stroke-linecap="round"/>
</g>
<defs>
<clipPath id="clip0_623_285">
<rect width="1856" height="1016" rx="10" fill="white"/>
</clipPath>
</defs>
</svg>
