<svg width="267" height="206" viewBox="0 0 267 206" fill="none" xmlns="http://www.w3.org/2000/svg">
<path d="M127.59 22.9704C99.315 23.7346 89.0623 34.7515 87.4702 40.1644C85.2414 52.2639 92.0553 76.2719 137.142 75.5078C182.229 74.7436 180.127 51.6271 173.44 40.1644C169.938 34.1147 155.864 22.2062 127.59 22.9704Z" fill="#09702C" fill-opacity="0.25"/>
<path d="M128.203 75.5075C128.203 94.4995 112.669 109.896 93.5083 109.896C86.4764 109.896 79.9331 107.822 74.4669 104.258C69.5008 101.02 65.4237 96.5527 62.6768 91.2922C60.2083 86.565 58.814 81.1976 58.814 75.5075C58.814 56.5155 74.3472 41.1194 93.5083 41.1194C99.2491 41.1194 104.664 42.5014 109.434 44.9481C120.583 50.6677 128.203 62.2056 128.203 75.5075Z" fill="#F0EFED"/>
<path d="M207.829 75.5075C207.829 94.4995 192.296 109.896 173.135 109.896C166.103 109.896 159.559 107.822 154.093 104.258C149.127 101.02 145.05 96.5527 142.303 91.2922C139.835 86.565 138.44 81.1976 138.44 75.5075C138.44 56.5155 153.974 41.1194 173.135 41.1194C178.875 41.1194 184.291 42.5014 189.06 44.9481C200.209 50.6677 207.829 62.2056 207.829 75.5075Z" fill="#F0EFED"/>
<path d="M128.203 75.5075C128.203 94.4995 112.669 109.896 93.5083 109.896C86.4764 109.896 79.9331 107.822 74.4669 104.258C69.5008 101.02 65.4237 96.5527 62.6768 91.2922C60.2083 86.565 58.814 81.1976 58.814 75.5075C58.814 56.5155 74.3472 41.1194 93.5083 41.1194C99.2491 41.1194 104.664 42.5014 109.434 44.9481C120.583 50.6677 128.203 62.2056 128.203 75.5075ZM128.203 75.5075H138.44M138.44 75.5075C138.44 56.5155 153.974 41.1194 173.135 41.1194C178.875 41.1194 184.291 42.5014 189.06 44.9481C200.209 50.6677 207.829 62.2056 207.829 75.5075C207.829 94.4995 192.296 109.896 173.135 109.896C166.103 109.896 159.559 107.822 154.093 104.258C149.127 101.02 145.05 96.5527 142.303 91.2922C139.835 86.565 138.44 81.1976 138.44 75.5075Z" stroke="#09702C" stroke-width="6.17075"/>
<path d="M257.501 189.179C257.501 119.639 243.172 57.9083 209.739 31.5673C199.232 23.2887 168.856 6.73145 131.411 6.73145C93.9661 6.73145 66.7741 23.2887 57.8586 31.5673C20.6049 66.1601 14.8735 112.761 14.8735 189.179" stroke="#09702C" stroke-opacity="0.25" stroke-width="6.17075" stroke-linecap="round"/>
<path d="M21.7632 1C21.7632 1 23.952 10.9258 28.0264 15.0002C32.1008 19.0746 42.0266 21.2634 42.0266 21.2634C42.0266 21.2634 32.1008 23.4522 28.0264 27.5266C23.952 31.601 21.7632 41.5267 21.7632 41.5267C21.7632 41.5267 19.5744 31.601 15.5 27.5266C11.4256 23.4522 1.49981 21.2634 1.49981 21.2634C1.49981 21.2634 11.4256 19.0746 15.5 15.0002C19.5744 10.9258 21.7632 1 21.7632 1Z" fill="#09702C" stroke="#09702C" stroke-width="2" stroke-linejoin="round"/>
<path d="M33.0229 121.358C39.7095 114.035 56.9036 100.534 72.1872 105.119C91.2916 110.851 68.3663 156.701 72.1872 167.209M76.0081 176.761L78.8737 184.403" stroke="#09702C" stroke-width="6.17075" stroke-linecap="round"/>
<path d="M121.859 147.149L132.366 136.642L142.874 147.149L137.142 156.702L150.516 186.314L132.366 204.463L116.127 186.314L128.545 156.702L121.859 147.149Z" fill="#09702C"/>
<path d="M128.545 156.702L121.859 147.149L132.366 136.642L142.874 147.149L137.142 156.702M128.545 156.702H137.142M128.545 156.702L116.127 186.314L132.366 204.463L150.516 186.314L137.142 156.702" stroke="#09702C" stroke-width="2" stroke-linecap="round" stroke-linejoin="round"/>
<path d="M58.8139 69.7762C55.6298 64.6817 48.6885 56.021 46.396 62.1344" stroke="#09702C" stroke-width="6.17075" stroke-linecap="round" stroke-linejoin="round"/>
<path d="M207.829 69.7762C211.013 64.6817 217.955 56.021 220.247 62.1344" stroke="#09702C" stroke-width="6.17075" stroke-linecap="round" stroke-linejoin="round"/>
</svg>
