<svg width="913" height="696" viewBox="0 0 913 696" fill="none" xmlns="http://www.w3.org/2000/svg">
<path d="M0 12C0 5.37257 5.37258 0 12 0H912.5V696H12C5.37259 696 0 690.627 0 684V12Z" fill="#09702C"/>
<g opacity="0.6">
<ellipse cx="323.8" cy="616.458" rx="58.7205" ry="13.9811" fill="#075822"/>
<ellipse cx="709.679" cy="595.486" rx="58.7205" ry="14.4471" fill="black" fill-opacity="0.1"/>
<path d="M539.724 595.559C568.3 588.839 631.85 576.406 657.441 580.438C659.574 565.877 672.539 541.122 707.343 558.596C706.063 549.075 707.343 529.361 722.697 526.673C729.948 510.992 694.292 479.628 493.661 479.628C293.03 479.628 266.756 514.352 278.699 531.714C289.361 523.313 311.71 514.912 315.805 548.515C324.762 544.595 340.628 543.139 332.439 568.677C361.868 569.237 425.589 575.397 445.038 595.559C462.951 594.439 500.314 593.88 506.456 600.6L278.699 609.001C226.237 609.001 196.575 604.831 183.058 595.559C165.296 583.377 227.943 574.838 255.667 573.718C259.505 573.158 263.6 571.365 249.269 568.677C231.355 565.317 209.603 575.398 196.808 558.596C185.292 560.276 160.469 559.268 153.304 541.795L53.5 538.434C55.6326 532.834 70.3899 521.633 112.359 521.633C109.8 515.472 109.032 503.151 126.433 503.151C121.315 485.789 117.733 451.066 144.347 451.066C120.462 438.184 80.6261 404.021 112.359 370.418C106.814 344.095 111.079 291.45 172.497 291.45C233.914 291.45 233.914 330.654 226.237 350.256C232.208 341.295 244.151 340.511 244.151 409.062C244.151 477.612 267.183 451.066 278.699 429.223C285.096 417.462 297.891 407.717 297.891 462.827C305.568 454.426 320.923 445.017 320.923 474.588C354.618 470.668 436.338 462.827 493.661 462.827C550.983 462.827 604.553 470.668 624.172 474.588C641.233 475.708 667.677 464.171 636.968 409.062C606.259 353.952 651.469 359.217 677.913 368.738C676.207 362.577 676.633 350.256 691.988 350.256C707.342 350.256 722.27 376.018 727.815 388.9C741.036 377.698 767.48 347.231 767.48 314.972C767.48 282.713 787.1 301.531 796.91 314.972C819.088 293.69 863.445 272.296 863.445 356.976C864.268 380.195 856.13 425.799 817.932 429.041C824.692 430.064 831.735 437.624 825.059 462.827C816.87 493.742 826.765 480.189 832.736 469.547C838.708 457.786 850.65 447.705 850.65 501.471C850.65 555.236 797.763 568.677 771.319 568.677C785.82 574.278 808.681 585.479 784.114 585.479C759.547 585.479 677.913 609.001 636.968 609.001C656.161 604.521 688.149 595.559 662.558 595.559H539.724Z" fill="#09702C" stroke="#2E9952" stroke-width="4"/>
<path d="M709.678 574.981C680.97 573.49 658.258 588.03 650.491 595.486C657.171 595.486 667.641 594.461 670.997 595.952C674.352 597.444 666.802 601.39 660.744 602.477C670.81 601.358 671.463 604.496 670.531 606.205L760.01 588.496C751.807 569.482 723.037 571.563 709.678 574.981Z" fill="black" fill-opacity="0.1"/>
<path fill-rule="evenodd" clip-rule="evenodd" d="M585.451 534.32C581.397 540.631 530.692 545.621 468.737 545.621C404.134 545.621 351.762 540.196 351.762 533.504C351.762 526.812 404.134 521.387 468.737 521.387C518.847 521.387 561.597 524.65 578.257 529.238C578.387 525.41 588.978 522.319 602.024 522.319C615.15 522.319 625.791 525.448 625.791 529.309C625.791 533.17 615.15 536.3 602.024 536.3C595.578 536.3 589.732 535.545 585.451 534.32Z" fill="black" fill-opacity="0.1"/>
<path d="M314.946 592.69C294.813 593.436 280.459 603.564 275.799 608.535L362.016 605.739C354.714 601.079 335.079 591.944 314.946 592.69Z" fill="black" fill-opacity="0.1"/>
<path d="M850.887 351.749C837.372 346.157 825.721 350.351 816.401 380.178C816.04 381.332 813.881 381.138 813.63 379.955C812.205 373.232 808.842 366.339 802.42 364.332C780.05 357.342 766.535 376.915 765.603 397.421C765.116 408.14 776.662 388.397 796.827 394.159C814.894 399.321 816.285 411.233 816.392 419.633C816.406 420.751 817.306 421.662 818.42 421.566C830.829 420.495 847.239 409.766 853.684 390.43C861.14 368.061 861.14 355.992 850.887 351.749Z" fill="#05481C"/>
<path d="M131.383 501.323C129.612 490.375 128.004 479.815 135.905 475.39C149.773 467.624 158.919 480.306 164.041 495.178C164.525 496.586 166.935 496.438 167.24 494.981C171.777 473.344 186.155 445.605 216.995 468.4C249.645 492.532 251.103 532.936 247.417 552.712C247.206 553.843 245.772 554.139 245.071 553.228C223.25 524.876 182.178 491.608 166.825 518.582C166.418 519.298 165.465 519.564 164.791 519.091C148.692 507.78 140.485 500.029 133.554 502.448C132.637 502.768 131.538 502.282 131.383 501.323Z" fill="#05481C"/>
<path d="M135.943 388.284C128.859 381.2 119.01 385.332 114.971 388.284C101.549 401.705 109.379 419.042 114.971 426.033C121.961 436.596 142.699 456.887 156.494 446.821C162.085 443.702 159.29 426.033 173.737 426.033C188.184 426.033 214.296 435.636 213.816 426.033C212.884 407.391 188.65 361.071 159.29 362.003C135.802 362.748 138.555 385.304 142.867 396.489C140.202 392.942 137.73 390.071 135.943 388.284Z" fill="#05481C"/>
<path d="M818.279 487.911C797.104 483.929 784.724 490.064 779.189 496.602C778.674 497.211 776.993 496.626 777.13 495.84C780.106 478.778 788.829 452.081 804.891 454.408C829.849 458.024 819.41 468.505 819.103 487.241C819.096 487.667 818.697 487.99 818.279 487.911Z" fill="#05481C"/>
</g>
<path d="M283.04 391.266C265.579 378.302 231.655 322.669 270.568 312.692C311.525 302.19 356.903 325.291 395.535 274.028C391.213 266.129 383.866 243.597 389.052 216.657C395.535 182.982 412.084 226.971 441.435 186.269C477.199 124.908 517.72 100.86 576.133 106.903C629.901 112.465 676.089 146.967 684.48 210.41C695.097 209.831 713.454 187.441 723.303 204.185C735.775 225.387 680.535 280.264 669.265 321.422C647.61 402.273 640.169 417.331 643.482 454.873C647.224 497.278 481.345 534.694 460.143 481.064C438.94 427.435 415.243 454.873 377.827 454.873C347.894 454.873 300.501 404.229 283.04 391.266Z" fill="#E0EFE5"/>
<path d="M266.826 323.849C272.764 312.618 307.288 308.875 397.883 383.745C402.175 387.292 406.489 390.615 410.816 393.728C419.229 399.519 439.363 412.416 452.596 417.667C548.672 460.104 638.625 421.704 633.277 457.367" stroke="#1F8943" stroke-width="6" stroke-linecap="round"/>
<path d="M519.933 173.862V188.828M554.855 173.862V188.828" stroke="#1F8943" stroke-width="6" stroke-linecap="round"/>
<path d="M494.989 188.828C494.989 215.181 516.441 252.075 602.249 188.828" stroke="#1F8943" stroke-width="6" stroke-linecap="round"/>
<path d="M396.536 277.77C402.772 269.455 416.241 250.331 420.233 240.354" stroke="#1F8943" stroke-width="6" stroke-linecap="round"/>
<path d="M423.974 229.129L427.715 217.904" stroke="#1F8943" stroke-width="6" stroke-linecap="round"/>
<path d="M180.4 327.03C190.525 324.33 189.904 323.173 192.55 313.53C196.636 324.245 199.3 325.343 206.387 325.343C196.279 330.7 194.575 334.118 194.575 345.93C192.55 334.793 186.812 328.38 180.4 327.03Z" fill="#197E3A" stroke="#197E3A" stroke-width="1.98534" stroke-linejoin="round"/>
<path d="M667.351 381.576L733.893 448.118C734.668 448.894 735.925 448.894 736.701 448.118L848.566 336.253C849.341 335.478 849.341 334.221 848.566 333.446L782.024 266.904C781.248 266.129 779.991 266.129 779.216 266.904L777.343 268.776L667.351 378.769C666.576 379.544 666.576 380.801 667.351 381.576Z" fill="#8EBE9F" stroke="#8EBE9F" stroke-width="1.98534"/>
<path d="M759.357 343.041C758.371 341.884 758.607 340.843 760.344 339.764C760.936 340.342 761.725 341.884 759.357 343.041Z" fill="#1F8943" stroke="#1F8943" stroke-width="1.98534" stroke-linejoin="round"/>
<path d="M683.422 361.061C671.19 375.04 676.141 390.548 680.145 396.554L666.097 380.499C665.401 379.704 665.45 378.503 666.208 377.767L683.422 361.061Z" fill="#075822" stroke="#075822" stroke-width="1.98534" stroke-linejoin="round"/>
<path d="M760.415 349.047C763.036 349.921 762.053 352.323 761.507 353.962C761.23 355.054 763.145 352.87 768.606 356.692C774.067 360.514 766.422 367.067 764.784 367.613C763.145 368.159 758.231 370.343 754.954 365.975C751.678 361.606 760.415 357.238 754.954 355.6C750.776 354.346 752.259 352.161 753.67 350.38C753.797 350.22 753.947 350.08 754.123 349.976C755.36 349.245 757.981 348.236 760.415 349.047Z" fill="#1F8943" stroke="#1F8943" stroke-width="1.98534" stroke-linejoin="round"/>
<path d="M768.06 278.06L748.401 297.718L769.698 346.317L790.994 394.916L810.652 375.258L768.06 278.06Z" fill="#AFD3BC" stroke="#AFD3BC" stroke-width="1.98534" stroke-linejoin="round"/>
<path d="M838.502 321.744L852.7 335.942L838.502 350.139C847.676 340.965 842.325 327.387 838.502 321.744Z" fill="#075822"/>
<path d="M821.557 367.085L838.502 350.139M838.502 350.139L852.7 335.942L838.502 321.744C842.325 327.387 847.676 340.965 838.502 350.139Z" stroke="#075822" stroke-width="2.025" stroke-linecap="round" stroke-linejoin="round"/>
<path d="M824.851 267.138L852.154 335.396L805.739 286.25L824.851 267.138Z" fill="#075822" stroke="#075822" stroke-width="1.98534" stroke-linecap="round" stroke-linejoin="round"/>
<path d="M236.739 81.72C236.403 81.72 236.12 81.9721 236.081 82.3061C236.043 82.6401 236.261 82.9499 236.588 83.0263C239.204 83.6365 243.118 85.1186 246.408 87.5728C249.693 90.0236 252.277 93.3805 252.45 97.7478C252.45 97.916 252.454 98.0803 252.459 98.2403C252.472 98.6012 252.771 98.8854 253.132 98.8792C253.493 98.873 253.782 98.5786 253.782 98.2175C253.782 98.0502 253.779 97.8841 253.773 97.7193C253.763 95.0957 254.378 91.397 256.248 88.3762C258.098 85.3892 261.18 83.0436 266.226 83.0436C266.591 83.0436 266.888 82.7473 266.888 82.3818C266.888 82.0163 266.591 81.72 266.226 81.72C264.182 81.72 261.071 80.9471 258.478 78.6135C255.906 76.299 253.782 72.3926 253.782 66C253.782 65.6716 253.542 65.3929 253.217 65.3452C252.892 65.2976 252.581 65.4953 252.487 65.8098C251.687 68.4771 249.919 72.4913 247.24 75.824C244.557 79.1612 241.041 81.72 236.739 81.72Z" fill="#075822" stroke="#075822" stroke-width="1.32356" stroke-linecap="round" stroke-linejoin="round"/>
<path d="M264.587 106.409C270.266 106.409 274.234 99.1277 275.508 95.4873C275.508 104.37 282.251 106.63 287.51 106.675C288.531 106.503 289.625 106.409 290.798 106.409C289.847 106.578 288.718 106.685 287.51 106.675C279.786 107.976 276.312 113.729 275.508 116.784C275.508 109.357 268.228 106.773 264.587 106.409Z" fill="#268345" stroke="#268345" stroke-width="1.98534" stroke-linecap="round" stroke-linejoin="round"/>
<path d="M771.168 138.502C767.559 142.427 759.127 142.035 755.363 141.348C753.971 169.626 753.7 218.556 771.11 217.275C795.035 215.513 777.789 161.79 771.168 138.502Z" fill="#075822" stroke="#075822" stroke-width="1.32356" stroke-linejoin="round"/>
<path d="M754.076 101.51C738.135 121.858 748.605 136.956 755.833 141.962C762.587 144.186 768.823 140.943 771.097 139.043C773.577 131.478 776.632 115.763 769.011 113.422C761.391 111.082 755.879 104.506 754.076 101.51Z" fill="#8EBE9F"/>
<path d="M770.432 139.618L772.831 137.163C772.791 135.547 772.71 133.253 772.59 130.993C773.062 132.987 771.348 137.574 770.432 139.618Z" stroke="#075822" stroke-width="2.12279" stroke-linecap="round" stroke-linejoin="round"/>
<path d="M754.061 97.1419C747.359 102.529 745.269 114.023 745.055 119.414C745.05 119.53 745.075 119.641 745.127 119.744C745.944 121.392 746.447 121.993 748.476 122.799C750.568 123.629 754.861 128.61 758.795 128.034C762.728 127.457 758.256 119.698 760.313 116.667C762.371 113.637 771.857 129.228 773.952 121.795C775.628 115.849 771.452 113.014 769.155 112.34C762.836 109.832 757.392 101.75 755.102 97.3799C754.899 96.9932 754.401 96.8683 754.061 97.1419Z" fill="#529267" stroke="#529267" stroke-width="0.661779"/>
<path d="M745.987 120.813C745.841 125.201 747.223 129.426 747.933 130.99C746.288 126.804 748.187 124.964 749.342 124.567C746.859 123.354 746.071 121.559 745.987 120.813Z" fill="#075822" stroke="#075822" stroke-width="1.98534" stroke-linejoin="round"/>
<path d="M267.869 526.516L211.625 469.726L248.211 478.463L276.606 531.976C269.179 532.85 267.687 528.7 267.869 526.516Z" fill="#033413" stroke="#033413" stroke-width="1.98534" stroke-linejoin="round"/>
<path d="M230.737 443.514L276.606 531.976V443.514H230.737Z" fill="#8EBE9F" stroke="#8EBE9F" stroke-width="1.98534" stroke-linejoin="round"/>
<path d="M277.698 431.501V531.976L360.153 452.251V440.784L277.698 431.501Z" fill="#8EBE9F" stroke="#8EBE9F" stroke-width="0.661779"/>
<path d="M331.757 468.633L278.79 531.43H288.073L341.586 473.002L400.015 441.33L402.745 435.323L398.377 436.962L400.015 432.047L331.757 468.633Z" fill="#033413" stroke="#033413" stroke-width="0.661779"/>
<path d="M407.115 448.975L352.509 479.555L288.074 541.259L290.804 545.628L352.509 507.404L407.115 448.975Z" fill="#075822" stroke="#075822" stroke-width="0.661779"/>
<path d="M262.955 443.514H276.061V454.155C276.073 454.446 276.073 454.722 276.061 454.982V454.155C275.882 450.158 273.136 443.514 262.955 443.514Z" fill="#033413"/>
<path d="M276.061 454.982V443.514H262.955C273.876 443.514 276.243 451.159 276.061 454.982ZM276.061 454.982V521.184" stroke="#033413" stroke-width="1.98534" stroke-linecap="round" stroke-linejoin="round"/>
<path d="M267.638 541.574L204.448 478.384C204.189 478.126 204.189 477.707 204.448 477.448L210.065 471.831C210.323 471.573 210.742 471.573 211 471.831L266.019 526.85C266.154 526.985 266.22 527.17 266.225 527.36C266.302 530.217 269.977 533.614 277.152 533.614C284.323 533.614 289.016 531.238 289.166 528.452C289.177 528.263 289.242 528.077 289.376 527.943L344.317 473.002L400.127 442.659C400.384 442.518 400.704 442.565 400.911 442.772L406.488 448.349C406.8 448.661 406.724 449.187 406.336 449.398L350.87 479.554L288.83 541.594C288.482 541.942 288.619 542.547 289.055 542.776C290.128 543.34 291.349 544.321 291.349 545.628C291.349 547.359 274.191 547.804 265.378 547.812C265.22 547.812 265.071 547.757 264.959 547.646C263.855 546.555 263.114 544.351 267.374 542.709C267.839 542.53 267.99 541.927 267.638 541.574Z" fill="#529267"/>
<path d="M344.317 473.002L289.376 527.943C289.242 528.077 289.177 528.263 289.166 528.452C289.016 531.238 284.323 533.614 277.152 533.614C269.977 533.614 266.302 530.217 266.225 527.36C266.22 527.17 266.154 526.985 266.019 526.85L211 471.831C210.742 471.573 210.323 471.573 210.065 471.831L204.448 477.448C204.189 477.707 204.189 478.126 204.448 478.384L267.638 541.574C267.99 541.927 267.839 542.53 267.374 542.709C263.114 544.351 263.855 546.555 264.959 547.646C265.071 547.757 265.22 547.812 265.378 547.812C274.191 547.804 291.349 547.359 291.349 545.628C291.349 544.321 290.128 543.34 289.055 542.776C288.619 542.547 288.482 541.942 288.83 541.594L350.87 479.554M344.317 473.002L350.87 479.554M344.317 473.002L400.127 442.659C400.384 442.518 400.704 442.565 400.911 442.772L406.488 448.349C406.8 448.661 406.724 449.187 406.336 449.398L350.87 479.554" stroke="#529267" stroke-width="1.98534" stroke-linecap="round" stroke-linejoin="round"/>
<path d="M407.66 450.067L387.456 470.271C397.94 459.787 390.732 460.806 385.817 462.627L407.66 450.067Z" fill="#033413" stroke="#033413" stroke-width="1.98534" stroke-linejoin="round"/>
</svg>
