<svg width="874" height="536" viewBox="0 0 874 536" fill="none" xmlns="http://www.w3.org/2000/svg">
<g opacity="0.6">
<ellipse cx="293" cy="521" rx="63" ry="15" fill="#D9D9D9" fill-opacity="0.5"/>
<ellipse cx="707" cy="498.5" rx="63" ry="15.5" fill="black" fill-opacity="0.1"/>
<path d="M524.659 498.578C555.318 491.368 623.5 478.029 650.956 482.355C653.244 466.732 667.155 440.174 704.494 458.921C703.122 448.706 704.494 427.556 720.968 424.672C728.747 407.847 690.492 374.198 475.239 374.198C259.986 374.198 231.798 411.453 244.611 430.08C256.051 421.066 280.029 412.053 284.421 448.106C294.031 443.9 311.053 442.337 302.268 469.737C333.842 470.338 402.206 476.947 423.073 498.578C442.292 497.377 482.377 496.776 488.967 503.987L244.611 513C188.326 513 156.502 508.526 142 498.578C122.944 485.508 190.157 476.347 219.901 475.145C224.019 474.544 228.411 472.621 213.036 469.737C193.817 466.132 170.48 476.948 156.752 458.921C144.397 460.724 117.765 459.642 110.077 440.895L3 437.29C5.28798 431.281 21.1208 419.264 66.1482 419.264C63.4026 412.654 62.5789 399.435 81.2488 399.435C75.7577 380.808 71.9139 343.554 100.468 343.554C74.8425 329.734 32.1031 293.081 66.1482 257.029C60.1994 228.788 64.7754 172.306 130.669 172.306C196.563 172.306 196.563 214.367 188.326 235.397C194.732 225.783 207.545 224.942 207.545 298.489C207.545 372.035 232.256 343.554 244.611 320.12C251.475 307.502 265.202 297.047 265.202 356.172C273.439 347.159 289.912 337.065 289.912 368.791C326.063 364.585 413.739 356.172 475.239 356.172C536.739 356.172 594.213 364.585 615.263 368.791C633.566 369.992 661.937 357.614 628.99 298.489C596.044 239.363 644.549 245.011 672.92 255.226C671.089 248.616 671.547 235.397 688.02 235.397C704.494 235.397 720.509 263.037 726.458 276.857C740.644 264.84 769.015 232.152 769.015 197.542C769.015 162.932 790.064 183.121 800.589 197.542C824.384 174.709 871.974 151.756 871.974 242.608C872.856 267.518 864.125 316.446 823.144 319.924C830.395 321.022 837.952 329.133 830.79 356.172C822.004 389.34 832.62 374.799 839.027 363.383C845.433 350.764 858.246 339.949 858.246 397.632C858.246 455.316 801.504 469.737 773.133 469.737C788.691 475.746 813.218 487.763 786.861 487.763C760.503 487.763 672.919 513 628.99 513C649.582 508.193 683.902 498.578 656.446 498.578H524.659Z" fill="#E7ECEE" stroke="#DBE1E4" stroke-width="3"/>
<path d="M707 476.5C676.2 474.9 651.833 490.5 643.5 498.5C650.667 498.5 661.9 497.4 665.5 499C669.1 500.6 661 504.833 654.5 506C665.3 504.8 666 508.167 665 510L761 491C752.2 470.6 721.333 472.833 707 476.5Z" fill="black" fill-opacity="0.1" stroke="#E1E5E7" stroke-linecap="round" stroke-linejoin="round"/>
<path fill-rule="evenodd" clip-rule="evenodd" d="M573.72 432.876C569.37 439.647 514.97 445 448.5 445C379.188 445 323 439.18 323 432C323 424.82 379.188 419 448.5 419C502.261 419 548.127 422.502 566.001 427.423C566.141 423.316 577.504 420 591.5 420C605.583 420 617 423.358 617 427.5C617 431.642 605.583 435 591.5 435C584.585 435 578.313 434.19 573.72 432.876Z" fill="black" fill-opacity="0.1"/>
<path d="M283.5 495.5C261.9 496.3 246.5 507.167 241.5 512.5L334 509.5C326.167 504.5 305.1 494.7 283.5 495.5Z" fill="black" fill-opacity="0.1"/>
<path d="M858.5 237C844 231 831.5 235.5 821.5 267.5C821.113 268.739 818.797 268.531 818.527 267.261C816.998 260.048 813.391 252.653 806.5 250.5C782.5 243 768 264 767 286C766.478 297.5 778.866 276.319 800.5 282.5C819.298 287.871 821.269 300.052 821.476 309.003C821.514 310.659 822.844 312.013 824.49 311.821C837.697 310.28 854.727 298.819 861.5 278.5C869.5 254.5 869.5 241.552 858.5 237Z" fill="#D0DAE0"/>
<path d="M86.4251 396.645C84.583 385.198 83.1329 374.287 91.4103 369.651C105.436 361.797 114.96 373.437 120.609 388.163C121.399 390.222 125.147 389.993 125.666 387.849C131.162 365.156 146.65 338.676 178.41 362.151C212.801 387.57 214.936 429.815 211.26 451.425C210.974 453.105 208.85 453.563 207.802 452.22C184.369 422.21 141.444 387.795 124.903 415.445C124.276 416.492 122.881 416.875 121.884 416.172C105.566 404.667 96.8901 396.704 89.6923 398.444C88.2937 398.782 86.6537 398.066 86.4251 396.645Z" fill="#D0DAE0"/>
<path d="M91.451 276.196C83.851 268.596 73.2843 273.03 68.951 276.196C54.551 290.596 62.951 309.196 68.951 316.696C76.451 328.03 98.7 349.8 113.5 339C119.499 335.654 116.5 316.696 132 316.696C147.5 316.696 175.515 327 175 316.696C174 296.696 148 247 116.5 248C91.3 248.8 94.2533 273 98.8799 285C96.021 281.194 93.3691 278.115 91.451 276.196Z" fill="#D0DAE0"/>
<path d="M823.184 383.023C802.468 379.208 789.654 384.45 783.135 390.748C782.285 391.569 779.555 390.512 779.78 389.351C783.321 371.047 792.607 344.743 809.151 347.14C835.779 350.998 824.852 362.139 824.406 382.031C824.392 382.661 823.804 383.137 823.184 383.023Z" fill="#D0DAE0"/>
</g>
<path d="M201 293C216 289 215.08 287.286 219 273C225.054 288.873 229 290.5 239.5 290.5C224.524 298.437 222 303.5 222 321C219 304.5 210.5 295 201 293Z" fill="#8BCCF0" stroke="#8BCCF0" stroke-width="2.94124" stroke-linejoin="round"/>
<path d="M637.387 334.117L695.484 392.214C696.632 393.363 698.494 393.363 699.643 392.214L798.427 293.43C799.576 292.282 799.576 290.419 798.427 289.271L740.33 231.174C739.182 230.025 737.319 230.025 736.171 231.174L735.309 232.036L637.387 329.958C636.238 331.107 636.238 332.969 637.387 334.117Z" fill="#D0DAE0" stroke="#D0DAE0" stroke-width="2.94124"/>
<path d="M719.163 298.704C718.277 297.666 718.49 296.731 720.048 295.762C720.58 296.281 721.288 297.666 719.163 298.704Z" fill="#B5C2CA" stroke="#B5C2CA" stroke-width="2.94124" stroke-linejoin="round"/>
<path d="M650.994 314.881C640.014 327.43 644.458 341.352 648.053 346.744L636.166 333.159C635.136 331.981 635.208 330.202 636.331 329.112L650.994 314.881Z" fill="#1B1B1B" stroke="#1B1B1B" stroke-width="2.94124" stroke-linejoin="round"/>
<path d="M720.113 304.096C722.466 304.88 721.583 307.037 721.093 308.508C720.844 309.488 722.564 307.527 727.466 310.959C732.368 314.39 725.505 320.273 724.034 320.763C722.564 321.253 718.152 323.214 715.21 319.292C712.269 315.371 720.113 311.449 715.21 309.978C711.57 308.886 712.717 307.005 713.946 305.434C714.133 305.195 714.355 304.987 714.62 304.84C715.784 304.196 718.025 303.4 720.113 304.096Z" fill="#B5C2CA" stroke="#B5C2CA" stroke-width="2.94124" stroke-linejoin="round"/>
<path d="M726.975 240.369L709.328 258.017L728.446 301.645L747.564 345.274L765.211 327.626L726.975 240.369Z" fill="white" stroke="white" stroke-width="2.94124" stroke-linejoin="round"/>
<path d="M790.213 279.586L802.958 292.331L790.213 305.076C798.448 296.841 793.644 284.651 790.213 279.586Z" fill="#1B1B1B"/>
<path d="M775 320.289L790.213 305.076M790.213 305.076L802.958 292.331L790.213 279.586C793.644 284.651 798.448 296.841 790.213 305.076Z" stroke="#1B1B1B" stroke-width="3" stroke-linecap="round" stroke-linejoin="round"/>
<path d="M777.957 230.565L802.468 291.841L760.8 247.722L777.957 230.565Z" fill="#1B1B1B" stroke="#1B1B1B" stroke-width="2.94124" stroke-linecap="round" stroke-linejoin="round"/>
<path d="M277.946 463.412L227.455 412.431L260.298 420.274L285.789 468.314C279.122 469.099 277.782 465.373 277.946 463.412Z" fill="#1B1B1B" stroke="#1B1B1B" stroke-width="2.94124" stroke-linejoin="round"/>
<path d="M244.612 388.901L285.789 468.314V388.901H244.612Z" fill="white" stroke="white" stroke-width="2.94124" stroke-linejoin="round"/>
<path d="M286.77 378.116V468.314L360.791 396.744V386.45L286.77 378.116Z" fill="white" stroke="white" stroke-width="0.980413"/>
<path d="M335.3 411.45L287.75 467.824H296.083L344.123 415.372L396.575 386.94L399.026 381.548L395.105 383.018L396.575 378.606L335.3 411.45Z" fill="#1B1B1B" stroke="#1B1B1B" stroke-width="0.980413"/>
<path d="M402.949 393.803L353.929 421.255L296.084 476.648L298.535 480.57L353.929 446.255L402.949 393.803Z" fill="#61ACD6" stroke="#61ACD6" stroke-width="0.980413"/>
<path d="M273.535 388.901H285.3V398.453C285.311 398.714 285.311 398.962 285.3 399.195V398.453C285.14 394.864 282.674 388.901 273.535 388.901Z" fill="#1B1B1B"/>
<path d="M285.3 399.195V388.901H273.535C283.339 388.901 285.463 395.764 285.3 399.195ZM285.3 399.195V458.626" stroke="#1B1B1B" stroke-width="2.94124" stroke-linecap="round" stroke-linejoin="round"/>
<path d="M277.285 476.477L221.285 420.477C220.902 420.094 220.902 419.473 221.285 419.091L225.781 414.595C226.164 414.212 226.785 414.212 227.168 414.595L276.162 463.59C276.361 463.788 276.457 464.064 276.48 464.344C276.69 466.87 279.984 469.785 286.279 469.785C292.568 469.785 296.734 467.75 297.049 465.324C297.086 465.046 297.178 464.769 297.377 464.57L346.575 415.372L396.423 388.27C396.804 388.063 397.277 388.131 397.584 388.438L402.021 392.875C402.484 393.338 402.371 394.117 401.796 394.43L352.457 421.254L297.205 476.506C296.69 477.022 296.895 477.925 297.503 478.327C298.295 478.85 299.025 479.612 299.025 480.569C299.025 482.115 283.804 482.518 275.852 482.53C275.618 482.53 275.393 482.451 275.234 482.279C274.356 481.326 273.865 479.587 276.909 478.198C277.581 477.891 277.807 476.999 277.285 476.477Z" fill="#8BCCF0"/>
<path d="M346.575 415.372L297.377 464.57C297.178 464.769 297.086 465.046 297.049 465.324C296.734 467.75 292.568 469.785 286.279 469.785C279.984 469.785 276.69 466.87 276.48 464.344C276.457 464.064 276.361 463.788 276.162 463.59L227.168 414.595C226.785 414.212 226.164 414.212 225.781 414.595L221.285 419.091C220.902 419.473 220.902 420.094 221.285 420.477L277.285 476.477C277.807 476.999 277.581 477.891 276.909 478.198C273.865 479.587 274.356 481.326 275.234 482.279C275.393 482.451 275.618 482.53 275.852 482.53C283.804 482.518 299.025 482.115 299.025 480.569C299.025 479.612 298.295 478.85 297.503 478.327C296.895 477.925 296.69 477.022 297.205 476.506L352.457 421.254M346.575 415.372L352.457 421.254M346.575 415.372L396.423 388.27C396.804 388.063 397.277 388.131 397.584 388.438L402.021 392.875C402.484 393.338 402.371 394.117 401.796 394.43L352.457 421.254" stroke="#8BCCF0" stroke-width="2.94124" stroke-linecap="round" stroke-linejoin="round"/>
<path d="M403.439 394.783L385.301 412.921C394.713 403.509 388.242 404.424 383.83 406.058L403.439 394.783Z" fill="#1B1B1B" stroke="#1B1B1B" stroke-width="2.94124" stroke-linejoin="round"/>
<path d="M250 63.7258C249.502 63.7258 249.083 64.0993 249.026 64.5941C248.969 65.0889 249.292 65.5478 249.777 65.661C252.085 66.1994 255.547 67.511 258.449 69.6759C261.344 71.8359 263.566 74.7515 263.718 78.5093C263.718 78.6616 263.721 78.8106 263.726 78.956C263.745 79.4906 264.188 79.9117 264.723 79.9025C265.258 79.8933 265.687 79.4571 265.687 78.9222C265.687 78.7694 265.684 78.6177 265.678 78.467C265.67 76.1601 266.214 72.9208 267.843 70.2908C269.44 67.7111 272.089 65.6866 276.471 65.6866C277.013 65.6866 277.452 65.2477 277.452 64.7062C277.452 64.1648 277.013 63.7258 276.471 63.7258C274.719 63.7258 272.021 63.0589 269.774 61.0362C267.558 59.0418 265.687 55.6453 265.687 50C265.687 49.5136 265.33 49.1007 264.849 49.03C264.367 48.9594 263.907 49.2524 263.767 49.7183C263.06 52.076 261.494 55.6322 259.126 58.5771C256.753 61.5288 253.695 63.7258 250 63.7258Z" fill="#EE6B97" stroke="#EE6B97" stroke-width="1.96083" stroke-linecap="round" stroke-linejoin="round"/>
<path d="M275 86.2754C280.098 86.2754 283.66 79.7393 284.804 76.4712C284.804 84.4451 290.857 86.4741 295.578 86.5142C296.495 86.3599 297.477 86.2754 298.53 86.2754C297.676 86.4279 296.662 86.5234 295.578 86.5142C288.644 87.6823 285.526 92.8469 284.804 95.5893C284.804 88.9225 278.268 86.6022 275 86.2754Z" fill="#FECD21" stroke="#FECD21" stroke-width="2.94124" stroke-linecap="round" stroke-linejoin="round"/>
<path d="M656.714 124.379C653.474 127.902 645.905 127.551 642.525 126.934C641.276 152.32 641.033 196.245 656.662 195.094C678.14 193.513 662.658 145.285 656.714 124.379Z" fill="#1B1B1B" stroke="#1B1B1B" stroke-width="1.96083" stroke-linejoin="round"/>
<path d="M641.37 91.1712C627.06 109.437 636.459 122.991 642.947 127.485C649.011 129.482 654.609 126.57 656.65 124.865C658.877 118.074 661.619 103.966 654.778 101.865C647.937 99.7639 642.989 93.8604 641.37 91.1712Z" fill="#FBF9F1"/>
<path d="M656.053 125.381L658.207 123.177C658.171 121.726 658.099 119.667 657.99 117.638C658.414 119.428 656.875 123.546 656.053 125.381Z" stroke="#1B1B1B" stroke-width="3.14487" stroke-linecap="round" stroke-linejoin="round"/>
<path d="M640.984 87.5612C635.303 92.481 633.486 102.363 633.276 107.141C633.269 107.313 633.306 107.48 633.383 107.633C634.09 109.042 634.56 109.574 636.343 110.282C638.222 111.028 642.075 115.499 645.606 114.982C649.137 114.464 645.122 107.499 646.97 104.778C648.817 102.057 657.333 116.054 659.213 109.381C660.718 104.043 656.969 101.498 654.907 100.893C649.436 98.7214 644.695 91.8949 642.521 87.8931C642.212 87.3248 641.473 87.1377 640.984 87.5612Z" fill="#EE6B97" stroke="#EE6B97" stroke-width="0.980413"/>
<path d="M634.108 108.5C633.978 112.439 635.218 116.231 635.855 117.635C634.379 113.877 636.083 112.226 637.12 111.869C634.892 110.78 634.184 109.169 634.108 108.5Z" fill="#1B1B1B" stroke="#1B1B1B" stroke-width="2.94124" stroke-linejoin="round"/>
<path d="M302.624 307.571C289.062 297.503 262.712 254.291 292.936 246.542C324.749 238.385 359.995 256.328 390.001 216.511C386.644 210.376 380.938 192.874 384.966 171.949C390.001 145.794 402.855 179.961 425.652 148.346C453.431 100.686 484.905 82.0078 530.275 86.7013C572.037 91.0216 607.913 117.82 614.43 167.097C622.676 166.648 636.935 149.257 644.585 162.262C654.272 178.731 611.366 221.355 602.613 253.323C585.793 316.121 580.013 327.817 582.586 356.977C585.492 389.913 456.651 418.975 440.183 377.32C423.715 335.665 405.309 356.977 376.247 356.977C352.998 356.977 316.186 317.64 302.624 307.571Z" fill="white"/>
<path d="M290.03 255.208C294.642 246.485 321.458 243.577 391.825 301.73C395.158 304.485 398.509 307.066 401.87 309.484C408.405 313.982 424.043 323.999 434.322 328.078C508.946 361.04 578.814 331.214 574.66 358.914" stroke="black" stroke-width="5.81237" stroke-linecap="round"/>
<path d="M486.624 138.71V150.334M513.748 138.71V150.334" stroke="black" stroke-width="5.81237" stroke-linecap="round"/>
<path d="M467.249 150.334C467.249 170.803 483.911 199.459 550.56 150.334" stroke="black" stroke-width="5.81237" stroke-linecap="round"/>
<path d="M390.778 219.417C395.622 212.959 406.084 198.105 409.184 190.355" stroke="black" stroke-width="5.81237" stroke-linecap="round"/>
<path d="M412.09 181.637L414.996 172.918" stroke="black" stroke-width="5.81237" stroke-linecap="round"/>
</svg>
